<svg xmlns="http://www.w3.org/2000/svg" viewBox="0 0 512 512"><defs><style>.cls-1{fill:#fff;}.cls-2{fill:#39c0c4;}</style></defs><title>app_logo</title><g id="Layer_2" data-name="Layer 2"><g id="Layer_1-2" data-name="Layer 1"><path class="cls-1" d="M256,512C114.84,512,0,397.16,0,256S114.84,0,256,0,512,114.84,512,256,397.16,512,256,512Zm0-501.36C120.71,10.64,10.64,120.71,10.64,256S120.71,501.36,256,501.36,501.36,391.29,501.36,256,391.29,10.64,256,10.64Z"/><path class="cls-2" d="M313.77,317.91a18.14,18.14,0,0,1-2.7,8.78,42.12,42.12,0,0,1-7,9.12,5.42,5.42,0,0,1-1.58,1.17,3.89,3.89,0,0,1-1.58.33c-1.49,0-2.24-.69-2.24-2.08a3.26,3.26,0,0,1,.5-1.67,6.2,6.2,0,0,1,1.58-1.66,31.24,31.24,0,0,0,7.55-8q2.41-3.75,2.41-6.5c0-1.84-.8-2.76-2.41-2.76-2.38,0-5.56,1.95-9.55,5.82a102.54,102.54,0,0,0-10.21,12.15A81.91,81.91,0,0,0,281.8,343a56.71,56.71,0,0,0-3.86,9.23,25.9,25.9,0,0,0-1.28,7.24,8.8,8.8,0,0,0,1.49,5.49,4.83,4.83,0,0,0,4,1.91q4,0,8.72-3.65a43,43,0,0,0,9.88-11.71,8.42,8.42,0,0,1,1.74-1.74,2.88,2.88,0,0,1,1.58-.67c.33,0,.5.2.5.58a4.14,4.14,0,0,1-.5,1.83,44.79,44.79,0,0,1-11.88,14.62q-6.3,4.89-11.95,4.89a8.82,8.82,0,0,1-6.65-2.58q-2.49-2.56-2.49-7.73a28.72,28.72,0,0,1,1.46-8.48,58.64,58.64,0,0,1,4.69-10.56A79.73,79.73,0,0,1,291.1,322q10.22-10.89,16.69-10.9a5.44,5.44,0,0,1,4.24,2A7.14,7.14,0,0,1,313.77,317.91Z"/><path class="cls-2" d="M348.5,328.92c0,1.47-1,4.05-3.14,7.73-2.71,4.76-4.1,7.23-4.18,7.38-.85,1.7-1.86,3.82-3,6.34q-2.16,4.65-3.37,8a31,31,0,0,0-1.86,6.68v2a15.28,15.28,0,0,1-.06,1.8c-.15.89-.59,1.33-1.32,1.33a2.05,2.05,0,0,1-.51-.05c-1.22-.16-1.83-1.22-1.83-3.2a23.09,23.09,0,0,1,1.16-6.39,34.82,34.82,0,0,1,2.09-5.53q2.1-4.59,4.07-8.48Q338,343.68,340,340c.81-1.47,2-3.49,3.43-6a74.2,74.2,0,0,0-6.34,7.72q-3.25,4.37-6.8,9.65l-5.17,7.79a7.27,7.27,0,0,1-1.89,2,3.29,3.29,0,0,1-1.77.63,1.6,1.6,0,0,1-1.31-.6,2.47,2.47,0,0,1-.5-1.6,26,26,0,0,1,1.22-7.62,50,50,0,0,1,3.32-8q1.68-3.19,2.61-5.12c.82-1.66,1.32-2.71,1.52-3.13q-2.1,1.68-6.17,8.13-3.42,5.47-7.32,12.67-3.44,6.41-5.29,10.35c-.5,1-1,2-1.45,3a2.45,2.45,0,0,1-2.21,1.51c-.81,0-1.22-.38-1.22-1.16a7.54,7.54,0,0,1,.93-2.91c.81-1.54,1.37-2.63,1.68-3.25q2.56-5.52,6.51-12.2a136.26,136.26,0,0,1,8.61-13q3.42-4.47,3.83-4.94a38.77,38.77,0,0,1,3.49-3.89,4.72,4.72,0,0,1,2.85-1.51c1,0,1.57.48,1.57,1.45a5.21,5.21,0,0,1-.29,1.57q-5,10-7.62,16-2.91,6.51-2.9,9.65c.69-1,2-3,4-5.81q2.14-3.09,4.3-6.16,2.55-3.66,4-5.87a67.24,67.24,0,0,1,7.55-9.59q2.57-2.5,4-2.5a1.1,1.1,0,0,1,1,.43A1.85,1.85,0,0,1,348.5,328.92Z"/><path class="cls-2" d="M383.26,328.92c0,1.47-1,4.05-3.14,7.73-2.71,4.76-4.11,7.23-4.18,7.38-.85,1.7-1.86,3.82-3,6.34-1.44,3.1-2.56,5.77-3.38,8a32.27,32.27,0,0,0-1.86,6.68v2a16.3,16.3,0,0,1-.05,1.8c-.16.89-.59,1.33-1.32,1.33a2.05,2.05,0,0,1-.51-.05c-1.22-.16-1.84-1.22-1.84-3.2a23.16,23.16,0,0,1,1.17-6.39,34.82,34.82,0,0,1,2.09-5.53q2.1-4.59,4.07-8.48,1.45-2.85,3.48-6.51c.82-1.47,2-3.49,3.44-6a74.2,74.2,0,0,0-6.34,7.72q-3.25,4.37-6.8,9.65l-5.17,7.79a7.42,7.42,0,0,1-1.89,2,3.29,3.29,0,0,1-1.77.63,1.59,1.59,0,0,1-1.31-.6,2.47,2.47,0,0,1-.5-1.6,26,26,0,0,1,1.22-7.62,50,50,0,0,1,3.32-8q1.68-3.19,2.61-5.12c.81-1.66,1.32-2.71,1.51-3.13q-2.08,1.68-6.16,8.13-3.42,5.47-7.32,12.67-3.44,6.41-5.29,10.35c-.5,1-1,2-1.45,3a2.46,2.46,0,0,1-2.21,1.51c-.82,0-1.22-.38-1.22-1.16a7.54,7.54,0,0,1,.93-2.91c.81-1.54,1.37-2.63,1.68-3.25q2.56-5.52,6.51-12.2a136.33,136.33,0,0,1,8.6-13Q360.6,334.5,361,334a37.56,37.56,0,0,1,3.49-3.89,4.72,4.72,0,0,1,2.85-1.51c1,0,1.57.48,1.57,1.45a5.21,5.21,0,0,1-.29,1.57q-5,10-7.62,16-2.91,6.51-2.91,9.65c.7-1,2-3,4-5.81l4.31-6.16q2.55-3.66,4-5.87a67.24,67.24,0,0,1,7.55-9.59c1.71-1.67,3-2.5,4-2.5a1.1,1.1,0,0,1,1,.43A1.92,1.92,0,0,1,383.26,328.92Z"/><path class="cls-2" d="M408.72,332.29q0,3.84-5.41,8.49-4.87,4.19-7.26,4.18c-1.79,0-2.64-.41-2.56-1.22s.85-1.47,2.54-2a14,14,0,0,0,6.66-4c1.88-1.94,2.83-3.64,2.83-5.11,0-1.05-.62-1.57-1.85-1.57-2.16,0-4.83,1.16-8,3.48Q390,338.68,390,343.6q0,1.86,4.54,9.58a13.32,13.32,0,0,1,2.09,6.73q0,3.94-4.71,6.38a15.88,15.88,0,0,1-7.32,1.92,8.94,8.94,0,0,1-6.22-2,5.81,5.81,0,0,1-1.92-4.45,6.23,6.23,0,0,1,1.86-4.36,5.37,5.37,0,0,1,3.89-2,2.74,2.74,0,0,1,1.37.29,1,1,0,0,1,.55.76q0,1-1.86,1.74a4.15,4.15,0,0,0-1.89,1.25,2.94,2.94,0,0,0-.61,1.83,3.7,3.7,0,0,0,1.28,2.73,4.5,4.5,0,0,0,3.26,1.22h1a8.47,8.47,0,0,0,5.52-1.88,5.28,5.28,0,0,0,2.33-4q0-3.13-4.48-8.94a10.6,10.6,0,0,1-2.15-6.44q0-5.28,4.94-10.28a17.12,17.12,0,0,1,12.5-5.45,5,5,0,0,1,3.34,1.16A3.68,3.68,0,0,1,408.72,332.29Z"/><path class="cls-1" d="M308.8,312.94a18.23,18.23,0,0,1-2.69,8.78,42.18,42.18,0,0,1-7,9.12,5.42,5.42,0,0,1-1.58,1.17,3.86,3.86,0,0,1-1.58.33c-1.49,0-2.24-.69-2.24-2.08a3.29,3.29,0,0,1,.5-1.67,6.2,6.2,0,0,1,1.58-1.66,30.91,30.91,0,0,0,7.55-8q2.42-3.75,2.41-6.5c0-1.84-.8-2.75-2.41-2.75q-3.57,0-9.55,5.82a101.54,101.54,0,0,0-10.21,12.14A81.16,81.16,0,0,0,276.84,338a54.71,54.71,0,0,0-3.86,9.24,25.54,25.54,0,0,0-1.29,7.23,8.78,8.78,0,0,0,1.49,5.49,4.8,4.8,0,0,0,4,1.91q4,0,8.72-3.65a43,43,0,0,0,9.88-11.71,8.42,8.42,0,0,1,1.74-1.74,2.9,2.9,0,0,1,1.58-.67c.33,0,.5.2.5.59a4.14,4.14,0,0,1-.5,1.82,44.79,44.79,0,0,1-11.88,14.62q-6.3,4.89-11.95,4.9a8.83,8.83,0,0,1-6.64-2.58q-2.5-2.58-2.5-7.74a28.72,28.72,0,0,1,1.46-8.48,59.36,59.36,0,0,1,4.69-10.56A79.73,79.73,0,0,1,286.13,317q10.22-10.89,16.7-10.89a5.42,5.42,0,0,1,4.23,2A7.14,7.14,0,0,1,308.8,312.94Z"/><path class="cls-1" d="M343.53,324q0,2.21-3.13,7.73c-2.72,4.77-4.11,7.23-4.19,7.38q-1.27,2.56-3,6.34c-1.43,3.1-2.56,5.77-3.37,8A31,31,0,0,0,328,360.1v2a15.16,15.16,0,0,1-.06,1.8c-.15.89-.59,1.34-1.32,1.34a1.64,1.64,0,0,1-.51-.06c-1.22-.16-1.83-1.22-1.83-3.2a23.6,23.6,0,0,1,1.16-6.39,35.27,35.27,0,0,1,2.09-5.52q2.1-4.59,4.07-8.49,1.45-2.85,3.49-6.51c.81-1.47,2-3.49,3.43-6a74.78,74.78,0,0,0-6.34,7.73q-3.25,4.35-6.8,9.64-.46.71-5.17,7.79a7.27,7.27,0,0,1-1.89,2,3.31,3.31,0,0,1-1.77.64,1.63,1.63,0,0,1-1.31-.61,2.46,2.46,0,0,1-.49-1.6,25.63,25.63,0,0,1,1.22-7.62,49,49,0,0,1,3.31-8c1.12-2.13,2-3.84,2.62-5.11.81-1.67,1.31-2.72,1.51-3.14q-2.1,1.68-6.17,8.13-3.42,5.47-7.32,12.68Q306.46,358,304.59,362c-.5,1-1,2-1.45,3a2.45,2.45,0,0,1-2.21,1.51c-.81,0-1.22-.38-1.22-1.16a7.46,7.46,0,0,1,.93-2.9c.81-1.55,1.38-2.64,1.69-3.26q2.55-5.52,6.5-12.2a136.26,136.26,0,0,1,8.61-13q3.42-4.47,3.83-4.93a38,38,0,0,1,3.49-3.9,4.75,4.75,0,0,1,2.85-1.51c1.05,0,1.57.48,1.57,1.45a4.89,4.89,0,0,1-.29,1.57q-5,10-7.62,16-2.91,6.51-2.9,9.64c.7-1,2-3,4-5.81,1.43-2.05,2.86-4.11,4.3-6.16q2.55-3.66,4-5.87a67,67,0,0,1,7.56-9.59q2.55-2.5,4-2.5a1.08,1.08,0,0,1,.95.44A1.82,1.82,0,0,1,343.53,324Z"/><path class="cls-1" d="M378.29,324c0,1.47-1,4.05-3.14,7.73q-4.06,7.15-4.18,7.38-1.28,2.56-3,6.34-2.16,4.65-3.37,8a31.82,31.82,0,0,0-1.87,6.68v2a16.18,16.18,0,0,1,0,1.8c-.15.89-.59,1.34-1.32,1.34a1.6,1.6,0,0,1-.51-.06c-1.22-.16-1.83-1.22-1.83-3.2a23.21,23.21,0,0,1,1.16-6.39,34.29,34.29,0,0,1,2.09-5.52q2.1-4.59,4.07-8.49,1.46-2.85,3.49-6.51c.81-1.47,1.95-3.49,3.43-6a73.48,73.48,0,0,0-6.34,7.73q-3.25,4.35-6.8,9.64-.47.71-5.17,7.79a7.27,7.27,0,0,1-1.89,2,3.31,3.31,0,0,1-1.77.64,1.61,1.61,0,0,1-1.31-.61,2.47,2.47,0,0,1-.5-1.6,26,26,0,0,1,1.22-7.62,50,50,0,0,1,3.32-8c1.12-2.13,2-3.84,2.61-5.11.82-1.67,1.32-2.72,1.51-3.14q-2.08,1.68-6.16,8.13-3.42,5.47-7.32,12.68Q341.21,358,339.35,362c-.5,1-1,2-1.45,3a2.45,2.45,0,0,1-2.21,1.51c-.81,0-1.22-.38-1.22-1.16a7.46,7.46,0,0,1,.93-2.9c.81-1.55,1.37-2.64,1.68-3.26q2.57-5.52,6.51-12.2a134.37,134.37,0,0,1,8.61-13q3.42-4.47,3.83-4.93a36.86,36.86,0,0,1,3.49-3.9,4.72,4.72,0,0,1,2.85-1.51c1,0,1.57.48,1.57,1.45a5.21,5.21,0,0,1-.29,1.57q-4.95,10-7.62,16-2.91,6.51-2.91,9.64,1-1.56,4-5.81c1.43-2.05,2.86-4.11,4.3-6.16q2.55-3.66,4-5.87a67.82,67.82,0,0,1,7.55-9.59q2.56-2.5,4-2.5a1.09,1.09,0,0,1,1,.44A1.82,1.82,0,0,1,378.29,324Z"/><path class="cls-1" d="M403.75,327.32q0,3.84-5.41,8.49-4.87,4.19-7.26,4.18c-1.79,0-2.64-.41-2.56-1.22s.85-1.47,2.55-2a13.85,13.85,0,0,0,6.65-4c1.89-1.93,2.83-3.64,2.83-5.11,0-1.05-.61-1.57-1.85-1.57-2.16,0-4.83,1.16-8,3.48q-5.68,4.13-5.68,9.05,0,1.86,4.54,9.58a13.32,13.32,0,0,1,2.09,6.73q0,3.94-4.71,6.38a15.88,15.88,0,0,1-7.32,1.92,8.89,8.89,0,0,1-6.22-2,5.81,5.81,0,0,1-1.92-4.45,6.23,6.23,0,0,1,1.86-4.36,5.37,5.37,0,0,1,3.89-2,2.74,2.74,0,0,1,1.37.29,1,1,0,0,1,.55.76q0,1-1.86,1.74a4.15,4.15,0,0,0-1.89,1.25,3,3,0,0,0-.61,1.83,3.74,3.74,0,0,0,1.28,2.74,4.54,4.54,0,0,0,3.26,1.22h1a8.51,8.51,0,0,0,5.53-1.89,5.3,5.3,0,0,0,2.32-4q0-3.14-4.48-8.94A10.57,10.57,0,0,1,381.6,339q0-5.28,4.94-10.27a17.09,17.09,0,0,1,12.5-5.46,5,5,0,0,1,3.34,1.16A3.68,3.68,0,0,1,403.75,327.32Z"/><path class="cls-2" d="M444.77,113.23l-3.5,3A162.11,162.11,0,0,1,358.75,153c-15.1,2.17-30.66,1.74-46.14,4.23A87.71,87.71,0,0,0,290,163.79c-.85.39-1.7.8-2.54,1.23l-9.83-18.64-.9-1.7-1.89.27L250,148.52c-.55-.62-1.12-1.23-1.69-1.83l5.45-24.47.38-1.73-1.48-.93-19.36-12.18-1.45-.91-1.33,1L210.72,123.1q-1.35-.45-2.7-.84l-7.56-24L200,96.73l-1.54-.06-22.86-.87-1.5-.06-.55,1.38-9.43,23.55c-1,.22-2.05.45-3.06.7l-18.69-17.15-1-.91-1.18.62L120,114.6l-1.13.6.18,1.26,3.63,25.3c-.85.76-1.69,1.53-2.51,2.33l-24.95-5.55-1.1-.25-.59,1L81.3,158.6l-.57.9.66.83,15.88,20.2c-.4,1.19-.77,2.39-1.12,3.6l-24.51,7.71-.87.27,0,.91-.88,22.86,0,.85.79.32,24,9.61c.27,1.33.57,2.66.9,4L78,249.69l-.47.51.32.62,10.68,20.23.3.57.62-.09,25.78-3.71c1,1.1,2,2.16,3,3.21l-5.65,25.42-.11.47.41.26,19.36,12.18.36.23.34-.26,20.57-16.18c1.49.51,3,1,4.5,1.39l7.85,25,.09.26h.27l22.86.87h.21l.08-.2L199.16,296q2.46-.5,4.89-1.12l19.41,17.81,0,0,.05,0,22.95-10.2-23,10-19.31-18-.07-.07-.1,0c-1.69.43-3.38.8-5.09,1.12l-.11,0,0,.1-9.93,24.28-22.37-1-7.66-25-.08-.25-.25-.08q-2.5-.71-4.95-1.57l-.26-.09-.22.17-20.57,15.93L114,296.28,119.86,271l.1-.41-.3-.31c-1.2-1.24-2.35-2.5-3.47-3.8l-.29-.33-.43.06-25.59,3.48L80,250.52l17.55-18.83.4-.43-.15-.58q-.61-2.51-1.1-5l-.11-.59-.56-.23-23.68-9.69,1-21.09,24.41-7.48.72-.22.21-.73q.7-2.48,1.55-4.9l.25-.72-.47-.61L84.42,159.32,95.57,141.9l24.7,5.69.89.2.66-.64q1.83-1.77,3.77-3.44l.7-.6-.13-.93-3.39-25,18-9.32L159.13,125l.79.74,1.06-.27c1.65-.41,3.31-.78,5-1.09l1.07-.2.42-1,9.44-23.09,19.82.9L204,124.8l.36,1.19,1.22.34c1.62.46,3.24,1,4.84,1.54l1.18.41,1-.77,19.56-15.14,16.35,10.46L243,146.91l-.31,1.36,1,1c1.16,1.2,2.3,2.45,3.39,3.72l.93,1.07,1.42-.19,24.31-3.31,8.92,17.22A49.09,49.09,0,0,0,271,177.93a40.27,40.27,0,0,0-8.77,20.31,34.26,34.26,0,0,0,.4,11.2,30.94,30.94,0,0,0,1.06,3.39,44.29,44.29,0,0,0-4.07-3.16c-.89-.59-1.8-1.16-2.73-1.68l-.7-.39-.94-.5L253,206l-1.11-.52-.28-.12-.14-.07s0,.08,0,.11l0,.61c0,.82-.1,1.62-.13,2.45l-.14,3.72-.45,12.47-.15,4.44-.05,1.6v.21c0,.06,0,0,0,0l0-.09a2.47,2.47,0,0,0-.11-.36,5.18,5.18,0,0,0-.29-.7,7.05,7.05,0,0,0-.78-1.23,3.25,3.25,0,0,0-.23-.29l-.35-.4c-.37-.35-.71-.73-1.11-1.06a15.49,15.49,0,0,0-2.47-1.78c-.45-.25-.9-.49-1.37-.7a7.4,7.4,0,0,0-.87-.35c-.32-.11-.64-.24-1-.33-.64-.16-1.27-.33-1.92-.46l-.49-.1-.12,0h-.06s0,0,0,.05v.24l.05,1c0,1.23.23,2.9.29,3.66l.51,5.74,2.07,23,4.23,45.9-3.15-46-1.62-23-.41-5.75-.14-2c0-.25-.15-.67.24-.46a6.57,6.57,0,0,1,.79.23l.38.15a3.35,3.35,0,0,1,.45.2,11.38,11.38,0,0,1,1.19.64,12.64,12.64,0,0,1,2.16,1.61,12.3,12.3,0,0,1,1,1c.11.14.37.42.59.7a8.73,8.73,0,0,1,.64,1l.31.5a1.77,1.77,0,0,1,.15.28l.16.42.64,1.68.09.23.1.33.22.67.43,1.34.43,1.35.49,1.58.12-.59c0-.18.08-.47.11-.44l.17-.24c.06,0,.09.11.13.16l0,.05s0,.09,0-.06l0-.57.22-4.63.4-8,.63-12.46.13-2.52,0-.63V209c0-.07.08,0,.12,0l.28.14.55.29.44.24.65.37c.88.51,1.73,1.06,2.56,1.62a42.16,42.16,0,0,1,8.88,8.19l2.09-1.57a28.13,28.13,0,0,1-4.15-19.71,37.38,37.38,0,0,1,8.31-18.72,50.12,50.12,0,0,1,18-13.1,85.13,85.13,0,0,1,21.79-6.15c15.07-2.35,30.59-1.86,46.1-3.95a165.54,165.54,0,0,0,71.33-27.51,225.59,225.59,0,0,0-34.05,58c-5.72,14.43-10.28,29.2-17.61,42.56a81,81,0,0,1-13.42,18.2A55.06,55.06,0,0,1,347,260.41c-1.38.52-2.79,1-4.21,1.34a27.42,27.42,0,0,0-5,1.1l.69,2.9a51.72,51.72,0,0,0,5.5-1.17,27,27,0,0,1,9.23.49,27.8,27.8,0,0,1,6.89,2.58l1.59.92,1.52,1c.5.36,1,.76,1.44,1.14l.31.25.12.11.23.21c.17.14.3.31.46.47l.11.13s.05,0,.05.05h-.08l-.31,0-2,.24-7.69.87L339,275l2.7,8.06.77,2.26c.51.82-.43.38-.9.35l-3-.55c-1.18-.2-2.38-.29-3.56-.43s-2.38-.29-3.57-.38l-3.59-.14a97.17,97.17,0,0,0-76.12,32.89,96.9,96.9,0,0,1,48.09-28.36A95.78,95.78,0,0,1,327.74,286l3.52.21c1.16.1,2.32.28,3.49.42s2.32.26,3.48.47l3.95.79c1.5.11,4.61,1.63,3-1l-1.44-4.49L342,277l14-1.39,7.7-.77,2.49-.25c1.07-.11,2.14-.22,3.12-.36l1.52-.21.37-.05c0-.06-.14-.18-.21-.27l-.52-.58c-.69-.77-1.35-1.59-2.1-2.32l-1.09-1.12-.56-.56a1.32,1.32,0,0,0-.23-.21l-.19-.16c-.53-.43-1-.88-1.58-1.28l-1.66-1.17-1.75-1a30.85,30.85,0,0,0-7.54-2.92c-.84-.2-1.7-.31-2.56-.44a59.73,59.73,0,0,0,16.59-11.6A84.17,84.17,0,0,0,382,231.41c7.64-13.75,12.29-28.66,18.06-42.85a221.25,221.25,0,0,1,47.48-72.48Z"/><path class="cls-2" d="M280.34,260.31l3.22-4.77c1.08-1.59,2.11-3.2,3.27-4.74,2.28-3.08,4.45-6.25,6.87-9.22a297,297,0,0,1,30.87-34.12,302.49,302.49,0,0,1,75.89-52.07,273.69,273.69,0,0,0-78,49.82,282.73,282.73,0,0,0-31.74,34.07c-2.46,3-4.67,6.21-7,9.32-1.18,1.55-2.24,3.18-3.34,4.78l-3.28,4.83c-4.28,6.49-8.25,13.15-12.21,19.78-7.85,13.3-15.6,26.62-25.17,38.53-1.2,1.48-2.39,3-3.66,4.39-.63.72-1.24,1.45-1.88,2.15l-2,2.05c-1.34,1.36-2.61,2.77-4,4.07L224,333a128.29,128.29,0,0,1-18.48,13.42c-26.17,15.67-57.87,22.45-88.47,17.84l5.71,1c1,.15,1.9.37,2.87.46l2.88.3,2.89.29a28.29,28.29,0,0,0,2.9.22l5.81.21c.49,0,1,0,1.46,0l1.45,0,2.91-.08c1.94-.07,3.88-.09,5.81-.32l5.81-.55c1.92-.28,3.84-.61,5.76-.91,1-.16,1.92-.29,2.88-.48l2.84-.63c1.9-.45,3.82-.81,5.69-1.33l5.61-1.63,1.4-.41,1.38-.49,2.75-1c3.71-1.22,7.25-2.87,10.84-4.39,1.77-.83,3.49-1.75,5.24-2.62l2.62-1.32,2.52-1.48a123.78,123.78,0,0,0,19.18-13.45l4.4-3.9c1.44-1.32,2.77-2.77,4.16-4.15l2.07-2.09c.66-.71,1.3-1.46,2-2.18,1.32-1.45,2.55-3,3.81-4.46,9.86-12.16,17.76-25.62,25.65-38.86C272.24,273.36,276.15,266.73,280.34,260.31Z"/><path class="cls-2" d="M203.57,164.74a49.22,49.22,0,0,0-66,23.53,49.37,49.37,0,0,0-1.39,38.43,49.27,49.27,0,0,0,95.26-15.78A48.06,48.06,0,0,1,227,229.19a47.2,47.2,0,1,1,1.34-36.82,48.28,48.28,0,0,1,3.07,18.55,49.34,49.34,0,0,0-27.86-46.18Z"/><path class="cls-1" d="M435.45,101.5l-3.39,3.14a162.17,162.17,0,0,1-81.13,39.72c-15,2.71-30.59,2.85-46,5.9a87.75,87.75,0,0,0-22.36,7.38c-.84.43-1.67.87-2.49,1.33L269.61,140.7l-1-1.67-1.87.34-24.68,4.46c-.57-.59-1.16-1.18-1.75-1.76l4.55-24.65.32-1.74-1.51-.88-19.79-11.47-1.48-.86-1.3,1.09L201.9,119.85c-.9-.25-1.81-.5-2.73-.73l-8.43-23.76-.52-1.46h-1.54l-22.87,0h-1.5l-.5,1.39-8.57,23.88c-1,.26-2,.53-3,.81l-19.3-16.46-1-.87-1.15.66-19.83,11.4-1.11.64.22,1.25,4.55,25.15c-.82.79-1.63,1.6-2.43,2.42L87,139.48l-1.11-.21-.56,1L73.86,160l-.54.93.69.8,16.6,19.61c-.35,1.21-.68,2.42-1,3.64L65.42,193.6l-.87.31v.9l0,22.88v.85l.8.29,24.33,8.73c.32,1.33.67,2.64,1,3.95L73.91,251.18l-.46.53.35.6,11.4,19.83.32.56.63-.11L111.77,268q1.5,1.59,3.08,3.1l-4.73,25.6-.09.48.42.25,19.79,11.47.37.21.32-.27,20-16.91c1.5.45,3,.86,4.54,1.22l8.76,24.68.09.25h.27l22.87.05h.22l.07-.2,8.9-24.79c1.63-.38,3.24-.81,4.85-1.29l20,17.1,0,0,.05,0,22.56-11-22.58,10.85-20-17.27-.07-.07-.1,0q-2.5.74-5,1.3l-.11,0,0,.1-9,24.62-22.39-.21-8.57-24.72-.08-.25-.26-.06q-2.52-.63-5-1.39l-.26-.09-.21.18-20,16.66-18.91-11.16,4.9-25.51.08-.42-.31-.29c-1.23-1.19-2.44-2.42-3.6-3.68l-.3-.32-.43.08L86.46,270.7,75.87,251.94l16.85-19.46.38-.44-.16-.57c-.48-1.66-.91-3.32-1.29-5l-.13-.58-.57-.21-24-8.82.2-21.12,24.12-8.36.71-.24.19-.74q.6-2.51,1.37-5l.23-.73-.5-.59L77,160.64l10.51-17.82,24.89,4.79.9.17.64-.66q1.77-1.85,3.64-3.57l.67-.63-.16-.92-4.29-24.82,17.64-10,19,16.43.81.71,1.05-.31c1.64-.47,3.28-.9,4.94-1.27l1.06-.24.38-1,8.61-23.41,19.83.19,8.15,23.52.41,1.17,1.22.3c1.65.41,3.28.86,4.9,1.37L203,125l1-.82,19-15.83,16.72,9.86L235,142.48l-.27,1.38,1,1q1.81,1.75,3.53,3.6l1,1,1.41-.25,24.18-4.18,9.54,16.88a49.2,49.2,0,0,0-11.22,10.53,40.26,40.26,0,0,0-8,20.62,34,34,0,0,0,.81,11.18,29,29,0,0,0,1.18,3.35,45.7,45.7,0,0,0-4.18-3c-.92-.55-1.84-1.09-2.79-1.58l-.72-.36-1-.46-2.25-1-1.13-.48-.28-.12-.14,0c-.06,0,0,.08,0,.11l0,.61c0,.82,0,1.61,0,2.45v16.2l0,4.44v1.81c0,.06,0,0,0,0l0-.08c0-.12-.07-.24-.12-.36s-.2-.46-.32-.69a7.09,7.09,0,0,0-.82-1.2c-.08-.09-.16-.19-.25-.28l-.36-.39c-.38-.34-.74-.71-1.14-1a15.42,15.42,0,0,0-2.54-1.7,14.52,14.52,0,0,0-1.39-.64,5.93,5.93,0,0,0-.89-.32c-.32-.1-.65-.22-1-.3-.64-.14-1.28-.28-1.94-.39l-.49-.09-.12,0h-.06s0,0,0,.05l0,.25.07,1c.1,1.23.34,2.89.43,3.65l.72,5.71,2.9,22.87,5.89,45.72L239.36,252l-2.46-22.92-.62-5.73-.21-2c0-.24-.17-.66.23-.46a5.85,5.85,0,0,1,.8.2l.38.13.45.19a11.41,11.41,0,0,1,1.22.59,14.12,14.12,0,0,1,2.22,1.53c.35.28.66.61,1,.92.12.14.39.4.61.68a7.67,7.67,0,0,1,.67.93l.33.48a1.72,1.72,0,0,1,.17.28l.17.41.7,1.65.09.23.12.33.24.66.48,1.32.48,1.33.54,1.57.11-.59c0-.18.06-.48.09-.44l.16-.25c.06,0,.09.11.14.15l0,.05s0,.09,0-.06v-.57l.06-4.64.11-8,.18-12.48,0-2.53v-.77c0-.07.08,0,.11,0l.29.13.56.27.44.22.67.35c.9.47,1.77,1,2.62,1.53a42.3,42.3,0,0,1,9.17,7.85l2-1.64c-4.08-5.53-5.57-12.69-4.86-19.54a37.39,37.39,0,0,1,7.62-19,50,50,0,0,1,17.5-13.74,85,85,0,0,1,21.55-6.95c15-2.89,30.51-3,45.93-5.61A165.8,165.8,0,0,0,421.84,118a225.76,225.76,0,0,0-31.92,59.17c-5.2,14.63-9.22,29.56-16.06,43.18A81.26,81.26,0,0,1,361.12,239a55.19,55.19,0,0,1-18.05,13.15,43.88,43.88,0,0,1-4.16,1.5,27.29,27.29,0,0,0-5,1.28l.79,2.87a50.68,50.68,0,0,0,5.46-1.37,27.37,27.37,0,0,1,9.25.15,28.17,28.17,0,0,1,7,2.33l1.63.87,1.55,1c.51.34,1,.73,1.49,1.09l.31.23.12.11.25.21c.17.13.31.3.47.45l.11.12.05.05-.07,0-.32.05-2,.31-7.66,1.15-16.7,2.5,3,8,.85,2.23c.54.8-.42.39-.89.38l-3.05-.44c-1.18-.15-2.38-.2-3.57-.3s-2.39-.2-3.59-.24l-3.58,0a97.16,97.16,0,0,0-74.88,35.64,97,97,0,0,1,47-30.1,95.77,95.77,0,0,1,27.84-3.72l3.51.07c1.17.07,2.34.2,3.5.3s2.34.18,3.5.35l4,.64c1.5.06,4.67,1.46,3-1.11l-1.61-4.43-1.93-5.37,14-1.9,7.67-1.05,2.48-.35c1.07-.14,2.14-.29,3.11-.47l1.5-.26.38-.06c0-.07-.16-.18-.23-.27L367,264c-.73-.75-1.41-1.54-2.19-2.24l-1.13-1.08-.57-.54-.24-.2-.2-.16c-.55-.4-1.07-.84-1.63-1.22l-1.7-1.1-1.78-1a31,31,0,0,0-7.65-2.64c-.84-.18-1.71-.25-2.57-.36a59.57,59.57,0,0,0,16.15-12.18A84,84,0,0,0,377,221.88c7.13-14,11.25-29.08,16.49-43.48a221.38,221.38,0,0,1,44.83-74.15Z"/><path class="cls-1" d="M276.46,254.45l3-4.89c1-1.62,2-3.27,3.1-4.84,2.17-3.16,4.22-6.41,6.53-9.48A297.66,297.66,0,0,1,318.74,200a302.38,302.38,0,0,1,73.95-54.78,273.68,273.68,0,0,0-76.11,52.61,283,283,0,0,0-30.48,35.2c-2.35,3.09-4.44,6.38-6.66,9.57-1.12,1.59-2.12,3.26-3.16,4.9l-3.11,4.94c-4,6.64-7.76,13.44-11.48,20.21-7.36,13.57-14.62,27.17-23.76,39.41-1.14,1.53-2.27,3.07-3.49,4.53-.6.74-1.19,1.49-1.8,2.22L230.73,321c-1.29,1.4-2.51,2.86-3.85,4.21l-4.08,4a128.79,128.79,0,0,1-18,14.08c-25.59,16.61-57,24.54-87.77,21l5.74.78c1,.11,1.92.29,2.88.35l2.9.19,2.9.19c1,.06,1.93.14,2.9.12h5.81c.49,0,1,0,1.46,0l1.45-.1,2.9-.19c1.94-.14,3.88-.23,5.8-.53l5.78-.77c1.91-.34,3.82-.74,5.73-1.11.95-.19,1.91-.36,2.86-.58l2.82-.74c1.88-.52,3.78-.94,5.63-1.54l5.55-1.83,1.39-.46,1.36-.53,2.71-1.09c3.67-1.35,7.14-3.13,10.68-4.79,1.73-.88,3.42-1.87,5.14-2.8l2.56-1.42,2.47-1.57a122.75,122.75,0,0,0,18.68-14.14l4.25-4.05c1.4-1.38,2.67-2.87,4-4.3l2-2.16c.64-.74,1.25-1.51,1.88-2.26,1.27-1.49,2.45-3.05,3.64-4.59,9.42-12.51,16.82-26.25,24.24-39.77C268.84,267.79,272.51,261,276.46,254.45Z"/><path class="cls-1" d="M196.27,161.73a49.22,49.22,0,0,0-65.11,25.91,49.3,49.3,0,0,0,11.05,54.6,49.29,49.29,0,0,0,83.58-35.37,48.31,48.31,0,0,1-3.74,18.42A47.07,47.07,0,0,1,177.57,254a47.19,47.19,0,1,1,44.48-65.59,48.31,48.31,0,0,1,3.74,18.42,49.36,49.36,0,0,0-29.52-45.14Z"/><path class="cls-2" d="M304.88,380.68c0,.89-.25,1.41-.74,1.58a13.22,13.22,0,0,1-3.24.25,38.34,38.34,0,0,0-4.42.27,39.48,39.48,0,0,0-5.69,1.22q-2.37,3.09-4.28,6a59.11,59.11,0,0,0-3.13,5.31l5-.86A27.52,27.52,0,0,1,293,394a1.26,1.26,0,0,1,1,.53,1.83,1.83,0,0,1,.42,1.18c0,.89-.48,1.33-1.44,1.33a37.71,37.71,0,0,0-5.86.72q-3,.56-5.91,1.05a59.14,59.14,0,0,0-3.26,6.41,55.56,55.56,0,0,0-3.26,8.4c-.15.74-.3,1.45-.44,2.15a2.1,2.1,0,0,1-2.16,1.72c-1,0-1.44-.52-1.44-1.55a7.08,7.08,0,0,1,.28-1.69c.19-.68.42-1.48.72-2.4a59.64,59.64,0,0,1,4.2-8.79q2.82-5.19,6.35-11.1,2.1-3.54,4.26-7.08a1,1,0,0,1-1.16-1.16q0-1.77,5.17-3.15a38.39,38.39,0,0,1,9.92-1.38,16.44,16.44,0,0,1,3.31.25C304.5,379.6,304.88,380,304.88,380.68Z"/><path class="cls-2" d="M310.08,408.09q0,1.94-4,5.2-4.31,3.48-7.73,3.48a4.13,4.13,0,0,1-3-1.3,4.35,4.35,0,0,1-1.3-3.18,11.54,11.54,0,0,1,1.44-5.19,14.19,14.19,0,0,1,2.77-3.93,18.94,18.94,0,0,1,3.86-3.28,5.82,5.82,0,0,1,2.77-1,2.31,2.31,0,0,1,1.71.66,2.19,2.19,0,0,1,.66,1.6,7.55,7.55,0,0,1-1.88,4.26,18.56,18.56,0,0,1-3.2,3.37,9.08,9.08,0,0,1-2.38,1.6,18.32,18.32,0,0,1-2.43,1,2.82,2.82,0,0,0,.58,2,2.12,2.12,0,0,0,1.63.64,8.3,8.3,0,0,0,4.23-1.66,20.32,20.32,0,0,0,4.45-4q.89-1,1.32-1.05C309.89,407.32,310.08,407.58,310.08,408.09Zm-5.64-5.36a.7.7,0,0,0-.66-.77,3.31,3.31,0,0,0-2.1,1.21,19.41,19.41,0,0,0-2.13,2.46,21.67,21.67,0,0,0-1.8,2.74q1.83,0,4.26-2.1T304.44,402.73Z"/><path class="cls-2" d="M324.67,400.63a4,4,0,0,1-.39,1.66.87.87,0,0,1,.33.77q0,1.11-1.71,4.81t-1.72,5a2.53,2.53,0,0,0,1.33,2.49,2,2,0,0,1,1.33,1.77.85.85,0,0,1-.45.77,2.1,2.1,0,0,1-1.16.28,3.28,3.28,0,0,1-2.32-.94,4.19,4.19,0,0,1-1.07-4c.09-.41.15-.7.19-.89q-2.76,4.65-5.64,4.65-2.53,0-2.87-3.54,0-4.26,3.59-9.45,3.87-5.58,7.68-5.58a3.38,3.38,0,0,1,2.1.58A2,2,0,0,1,324.67,400.63Zm-2.16,2.1c-.26-1-.76-1.43-1.49-1.43q-1.93,0-4.7,4.17t-2.76,6.71a1.41,1.41,0,0,0,.72,1.44c.81.26,1.89-.68,3.26-2.82Q320,406.77,322.51,402.73Z"/><path class="cls-2" d="M344.34,395.33c.14,1-.63,1.6-2.32,1.82a30.55,30.55,0,0,0-6,1.22,85.52,85.52,0,0,0-4.59,9.56,15.12,15.12,0,0,0-1.32,4.86c0,.81.31,1.22.93,1.22s1.71-.62,2.91-1.86a16.32,16.32,0,0,0,2.95-4.22c.3-.67.66-1,1.11-1s.88.26.88,1q0,2.31-3.07,5.61t-5.6,3.28a3.15,3.15,0,0,1-2.38-1.05,4,4,0,0,1-1-2.83,18.71,18.71,0,0,1,1.94-7,54.36,54.36,0,0,1,3.31-6.26,5.58,5.58,0,0,1-1.76.44c-.85,0-1.27-.44-1.27-1.32,0-.7.52-1.17,1.57-1.43l3.23-.77a50.33,50.33,0,0,1,4.15-6,3.69,3.69,0,0,1,2.48-1.57c.56-.07.83.26.83,1a4.85,4.85,0,0,1-1.16,2.48c-1.14,1.59-1.8,2.55-2,2.88.89-.22,1.7-.41,2.43-.56a11.12,11.12,0,0,1,2.05-.22C343.79,394.55,344.34,394.81,344.34,395.33Z"/><path class="cls-2" d="M358.32,406.16q0,2.26-2.94,6c-2.19,2.72-4.28,4.09-6.28,4.09a1.65,1.65,0,0,1-1.47-.69,3.2,3.2,0,0,1-.47-1.86,12,12,0,0,1,1.27-4.75,35.75,35.75,0,0,1,3.31-5.75,28.81,28.81,0,0,0-9.17,11.94c-.66,1.59-1.38,2.38-2.16,2.38s-1.21-.5-1.21-1.49.63-2.69,1.88-5.53c1-2.28,2.05-4.35,3.05-6.19q4-7.29,8.59-17.41,2.1-4.69,3.77-4.7a1.33,1.33,0,0,1,1.5,1.5c0,.66-.81,2.37-2.41,5.14s-3.22,5.52-4.84,8.28a57.47,57.47,0,0,0-3.77,7.35,26,26,0,0,1,4.93-4,6.58,6.58,0,0,1,3.15-1.16c.89,0,1.33.36,1.33,1.1a3,3,0,0,1-.27,1l-3.71,5.85q-2.2,3.6-2.2,4.7c0,.52.23.77.71.77a3,3,0,0,0,2.16-1.05q.1-.1,3-4.64,1-1.38,1.77-1.38C358.17,405.66,358.32,405.83,358.32,406.16Z"/><path class="cls-2" d="M374.07,408.09q0,1.94-4,5.2-4.3,3.48-7.73,3.48a4.11,4.11,0,0,1-3-1.3,4.31,4.31,0,0,1-1.3-3.18,11.65,11.65,0,0,1,1.43-5.19,14.4,14.4,0,0,1,2.77-3.93,18.69,18.69,0,0,1,3.87-3.28,5.76,5.76,0,0,1,2.76-1,2.31,2.31,0,0,1,1.71.66,2.2,2.2,0,0,1,.67,1.6,7.62,7.62,0,0,1-1.88,4.26,18.62,18.62,0,0,1-3.21,3.37,9.08,9.08,0,0,1-2.38,1.6,18.32,18.32,0,0,1-2.43,1,2.87,2.87,0,0,0,.58,2,2.12,2.12,0,0,0,1.63.64,8.3,8.3,0,0,0,4.23-1.66,20.32,20.32,0,0,0,4.45-4c.59-.7,1-1.05,1.33-1.05S374.07,407.58,374.07,408.09Zm-5.64-5.36a.7.7,0,0,0-.66-.77,3.31,3.31,0,0,0-2.1,1.21,19.41,19.41,0,0,0-2.13,2.46,20.41,20.41,0,0,0-1.79,2.74q1.81,0,4.25-2.1T368.43,402.73Z"/><path class="cls-2" d="M392.69,404.28c0,.77-.86,1.71-2.57,2.82a8.67,8.67,0,0,1-4.45,1.66,3,3,0,0,1-2-.6,2.41,2.41,0,0,1-.71-2,5.21,5.21,0,0,1,0-.87,44.8,44.8,0,0,0-4.64,5.53c-1.62,2.24-2.53,3.88-2.71,4.91a3.82,3.82,0,0,1-1,1.75,2.15,2.15,0,0,1-1.47.63c-.77,0-1.16-.37-1.16-1.1q0-2.22,4.12-9.79t6.05-7.57c.48,0,.76.17.83.5s-.74,1.55-2.21,3.65a14.84,14.84,0,0,0-1.66,2.82l5.2-4.65q3.25-2.76,4.47-2.76t1.11.72a2.17,2.17,0,0,1-.78,1.44,18.21,18.21,0,0,0-2.34,2.32c-.5.62-.71,1.1-.64,1.43s.33.56.88.56a5.13,5.13,0,0,0,2-.47,5.37,5.37,0,0,0,1.8-1.25,2,2,0,0,1,1.05-.55C392.43,403.38,392.69,403.65,392.69,404.28Z"/><path class="cls-1" d="M300.89,376.69c0,.89-.25,1.41-.75,1.58a13.06,13.06,0,0,1-3.23.25,38.34,38.34,0,0,0-4.42.27A39.2,39.2,0,0,0,286.8,380c-1.59,2.06-3,4.07-4.28,6a59.11,59.11,0,0,0-3.13,5.31l5-.86A27.73,27.73,0,0,1,289,390a1.26,1.26,0,0,1,1,.52,1.86,1.86,0,0,1,.42,1.19c0,.89-.48,1.33-1.44,1.33a37.71,37.71,0,0,0-5.86.72q-3,.56-5.91,1.05a59.14,59.14,0,0,0-3.26,6.41,55.16,55.16,0,0,0-3.26,8.4c-.15.73-.3,1.45-.45,2.15a2.08,2.08,0,0,1-2.15,1.72c-1,0-1.44-.52-1.44-1.55a7.08,7.08,0,0,1,.28-1.69q.27-1,.72-2.4a58.58,58.58,0,0,1,4.2-8.79q2.82-5.19,6.35-11.11,2.1-3.52,4.26-7.07a1,1,0,0,1-1.16-1.16q0-1.77,5.16-3.15a38.52,38.52,0,0,1,9.93-1.38,16.44,16.44,0,0,1,3.31.25C300.5,375.61,300.89,376,300.89,376.69Z"/><path class="cls-1" d="M306.09,404.1q0,1.93-4,5.2-4.31,3.48-7.74,3.48a4.12,4.12,0,0,1-3-1.3,4.36,4.36,0,0,1-1.3-3.18,11.54,11.54,0,0,1,1.44-5.19,14.38,14.38,0,0,1,2.76-3.93,19.67,19.67,0,0,1,3.87-3.29,5.9,5.9,0,0,1,2.77-1,2.31,2.31,0,0,1,1.71.66,2.19,2.19,0,0,1,.66,1.6,7.55,7.55,0,0,1-1.88,4.26,18.56,18.56,0,0,1-3.2,3.37,9.25,9.25,0,0,1-2.38,1.6,19.51,19.51,0,0,1-2.43,1,2.82,2.82,0,0,0,.58,2,2.11,2.11,0,0,0,1.63.63,8.27,8.27,0,0,0,4.23-1.65,20.55,20.55,0,0,0,4.45-4q.89-1,1.32-1.05C305.9,403.33,306.09,403.59,306.09,404.1Zm-5.64-5.36a.7.7,0,0,0-.66-.77,3.31,3.31,0,0,0-2.1,1.21,19.41,19.41,0,0,0-2.13,2.46,21,21,0,0,0-1.8,2.74c1.22,0,2.63-.7,4.26-2.1S300.45,399.7,300.45,398.74Z"/><path class="cls-1" d="M320.67,396.64a4,4,0,0,1-.38,1.66.86.86,0,0,1,.33.77q0,1.11-1.71,4.81t-1.72,5a2.51,2.51,0,0,0,1.33,2.49,2,2,0,0,1,1.33,1.77.85.85,0,0,1-.45.77,2.1,2.1,0,0,1-1.16.28,3.28,3.28,0,0,1-2.32-.94,4.07,4.07,0,0,1-1.21-3.1,4.48,4.48,0,0,1,.13-.93c.1-.41.16-.7.2-.89-1.85,3.1-3.72,4.64-5.64,4.64q-2.53,0-2.87-3.53,0-4.26,3.59-9.45,3.87-5.58,7.68-5.59a3.49,3.49,0,0,1,2.1.58A2,2,0,0,1,320.67,396.64Zm-2.15,2.1c-.26-1-.76-1.44-1.49-1.44-1.29,0-2.86,1.4-4.7,4.18s-2.76,5-2.76,6.71a1.41,1.41,0,0,0,.71,1.44q1.22.39,3.27-2.82Q316,402.78,318.52,398.74Z"/><path class="cls-1" d="M340.35,391.34c.14,1-.63,1.6-2.32,1.82a31.57,31.57,0,0,0-6,1.21,86.42,86.42,0,0,0-4.59,9.57,15.2,15.2,0,0,0-1.33,4.86c0,.81.32,1.21.94,1.21s1.71-.61,2.9-1.85a16.12,16.12,0,0,0,3-4.22c.3-.67.66-1,1.11-1s.88.26.88,1q0,2.31-3.07,5.6c-2,2.2-3.91,3.29-5.61,3.29a3.14,3.14,0,0,1-2.37-1.05,3.93,3.93,0,0,1-1-2.83,18.71,18.71,0,0,1,1.94-7,54.36,54.36,0,0,1,3.31-6.26,5.58,5.58,0,0,1-1.76.44,1.15,1.15,0,0,1-1.28-1.32c0-.7.53-1.17,1.58-1.43l3.23-.77a50.33,50.33,0,0,1,4.15-6,3.69,3.69,0,0,1,2.48-1.57c.56-.07.83.26.83,1a4.94,4.94,0,0,1-1.16,2.48c-1.14,1.59-1.8,2.54-2,2.88.89-.23,1.7-.41,2.43-.56a11.12,11.12,0,0,1,2.05-.22C339.79,390.56,340.35,390.82,340.35,391.34Z"/><path class="cls-1" d="M354.33,402.17c0,1.51-1,3.5-2.95,6-2.18,2.72-4.27,4.09-6.27,4.09a1.63,1.63,0,0,1-1.47-.7,3.17,3.17,0,0,1-.48-1.85,12,12,0,0,1,1.28-4.75,35.75,35.75,0,0,1,3.31-5.75,28.73,28.73,0,0,0-9.17,11.94c-.67,1.58-1.38,2.38-2.16,2.38s-1.21-.5-1.21-1.5c0-.84.63-2.69,1.88-5.52,1-2.29,2.05-4.35,3.05-6.19q4-7.31,8.59-17.41,2.1-4.69,3.77-4.7a1.32,1.32,0,0,1,1.49,1.5q0,1-2.4,5.13t-4.85,8.29a57.05,57.05,0,0,0-3.76,7.35,26,26,0,0,1,4.93-4,6.61,6.61,0,0,1,3.15-1.17c.89,0,1.33.37,1.33,1.11a3,3,0,0,1-.27,1q-2.49,3.93-3.71,5.86c-1.47,2.4-2.21,4-2.21,4.7,0,.52.24.77.72.77a3,3,0,0,0,2.16-1.05q.1-.1,3-4.64,1-1.38,1.77-1.38C354.18,401.67,354.33,401.84,354.33,402.17Z"/><path class="cls-1" d="M370.08,404.1q0,1.93-4,5.2-4.31,3.48-7.73,3.48a4.09,4.09,0,0,1-3-1.3,4.32,4.32,0,0,1-1.3-3.18,11.65,11.65,0,0,1,1.43-5.19,14.19,14.19,0,0,1,2.77-3.93,19.11,19.11,0,0,1,3.87-3.29,5.83,5.83,0,0,1,2.76-1,2.31,2.31,0,0,1,1.71.66,2.19,2.19,0,0,1,.66,1.6,7.55,7.55,0,0,1-1.88,4.26,18.23,18.23,0,0,1-3.2,3.37,9.08,9.08,0,0,1-2.38,1.6,18.32,18.32,0,0,1-2.43,1,2.87,2.87,0,0,0,.58,2,2.11,2.11,0,0,0,1.63.63,8.27,8.27,0,0,0,4.23-1.65,20.32,20.32,0,0,0,4.45-4q.89-1,1.32-1.05C369.89,403.33,370.08,403.59,370.08,404.1Zm-5.64-5.36a.7.7,0,0,0-.66-.77,3.31,3.31,0,0,0-2.1,1.21,19.41,19.41,0,0,0-2.13,2.46,21,21,0,0,0-1.8,2.74q1.83,0,4.26-2.1T364.44,398.74Z"/><path class="cls-1" d="M388.7,400.29c0,.77-.86,1.71-2.57,2.82a8.64,8.64,0,0,1-4.45,1.65,3,3,0,0,1-2-.59,2.41,2.41,0,0,1-.72-2,5.06,5.06,0,0,1,.06-.87,43.23,43.23,0,0,0-4.64,5.53q-2.44,3.36-2.71,4.91a3.73,3.73,0,0,1-1,1.74,2.12,2.12,0,0,1-1.47.64c-.77,0-1.16-.37-1.16-1.11q0-2.21,4.12-9.78t6.05-7.57c.48,0,.76.17.83.5s-.74,1.55-2.21,3.65a14.59,14.59,0,0,0-1.66,2.81l5.2-4.64q3.25-2.76,4.47-2.76t1.11.72a2.13,2.13,0,0,1-.78,1.43,19,19,0,0,0-2.35,2.33c-.49.62-.71,1.1-.63,1.43s.33.55.88.55a5,5,0,0,0,2-.47,5.21,5.21,0,0,0,1.8-1.24,1.88,1.88,0,0,1,1.05-.55C388.44,399.39,388.7,399.66,388.7,400.29Z"/></g></g></svg>