<svg xmlns="http://www.w3.org/2000/svg" viewBox="0 0 512 512.01"><defs><style>.cls-1{fill:#fff;}.cls-2{fill:#2a3e54;}.cls-3{fill:#39c0c4;}</style></defs><title>login_logo</title><g id="Layer_2" data-name="Layer 2"><g id="Layer_1-2" data-name="Layer 1"><path class="cls-1" d="M256,0C114.85,0,0,114.85,0,256S114.85,512,256,512,512,397.16,512,256,397.16,0,256,0Zm0,501.37C120.72,501.37,10.64,391.3,10.64,256S120.72,10.64,256,10.64,501.36,120.72,501.36,256,391.3,501.37,256,501.37Z"/><path class="cls-2" d="M501.36,256c0,135.3-110.06,245.37-245.36,245.37S10.64,391.3,10.64,256,120.72,10.64,256,10.64,501.36,120.72,501.36,256Z"/><path class="cls-3" d="M313.78,317.91a18.15,18.15,0,0,1-2.7,8.79,42.67,42.67,0,0,1-7,9.12,5.47,5.47,0,0,1-1.58,1.17,3.85,3.85,0,0,1-1.57.33c-1.5,0-2.25-.7-2.25-2.08a3.26,3.26,0,0,1,.5-1.67,6.23,6.23,0,0,1,1.58-1.67,31,31,0,0,0,7.56-8c1.6-2.5,2.4-4.66,2.4-6.5s-.8-2.75-2.4-2.75q-3.57,0-9.55,5.82a102.32,102.32,0,0,0-10.22,12.14,83.41,83.41,0,0,0-6.72,10.4,54.64,54.64,0,0,0-3.86,9.23,25.6,25.6,0,0,0-1.29,7.24,8.82,8.82,0,0,0,1.49,5.49,4.83,4.83,0,0,0,4,1.91q4,0,8.72-3.65a42.94,42.94,0,0,0,9.88-11.71,8.74,8.74,0,0,1,1.74-1.75,2.88,2.88,0,0,1,1.58-.66c.33,0,.5.2.5.58a4.21,4.21,0,0,1-.5,1.83,44.74,44.74,0,0,1-11.87,14.61q-6.31,4.9-12,4.9a8.8,8.8,0,0,1-6.64-2.58c-1.66-1.72-2.49-4.29-2.49-7.73a28.63,28.63,0,0,1,1.45-8.48,59.36,59.36,0,0,1,4.69-10.56A79.91,79.91,0,0,1,291.11,322q10.22-10.89,16.69-10.89a5.42,5.42,0,0,1,4.23,2A7.1,7.1,0,0,1,313.78,317.91Z"/><path class="cls-3" d="M348.51,328.92c0,1.48-1.05,4.05-3.14,7.74q-4.06,7.14-4.19,7.38-1.28,2.55-3,6.33c-1.43,3.1-2.56,5.78-3.37,8a31.69,31.69,0,0,0-1.86,6.69v2a15.16,15.16,0,0,1-.06,1.8c-.15.9-.59,1.34-1.31,1.34a1.72,1.72,0,0,1-.52-.06c-1.22-.15-1.83-1.22-1.83-3.19a23.59,23.59,0,0,1,1.16-6.4,34.6,34.6,0,0,1,2.1-5.52q2.08-4.59,4.06-8.49Q338,343.7,340,340c.82-1.48,2-3.49,3.43-6a75.9,75.9,0,0,0-6.34,7.73q-3.24,4.37-6.8,9.65l-5.17,7.79a7.08,7.08,0,0,1-1.89,2,3.23,3.23,0,0,1-1.77.64,1.6,1.6,0,0,1-1.31-.61,2.46,2.46,0,0,1-.49-1.6A25.9,25.9,0,0,1,320.9,352a49.49,49.49,0,0,1,3.31-8q1.69-3.19,2.62-5.12c.81-1.66,1.32-2.71,1.51-3.14q-2.1,1.7-6.16,8.14-3.44,5.46-7.32,12.67-3.44,6.39-5.3,10.35c-.5,1-1,2-1.45,3a2.45,2.45,0,0,1-2.21,1.51c-.81,0-1.22-.39-1.22-1.16a7.54,7.54,0,0,1,.93-2.91c.82-1.55,1.38-2.63,1.69-3.25a137.56,137.56,0,0,1,6.51-12.21,133,133,0,0,1,8.6-13c2.29-3,3.56-4.63,3.84-4.94a39.39,39.39,0,0,1,3.48-3.9,4.83,4.83,0,0,1,2.85-1.51c1.05,0,1.57.49,1.57,1.46a4.93,4.93,0,0,1-.29,1.57q-4.94,10-7.61,16-2.91,6.51-2.91,9.65c.7-1.05,2-3,4-5.81l4.3-6.17c1.71-2.44,3-4.39,4-5.86a66.44,66.44,0,0,1,7.56-9.59q2.55-2.5,4-2.51a1.12,1.12,0,0,1,1,.44A1.89,1.89,0,0,1,348.51,328.92Z"/><path class="cls-3" d="M383.27,328.92c0,1.48-1,4.05-3.14,7.74-2.72,4.76-4.11,7.22-4.19,7.38q-1.28,2.55-3,6.33c-1.43,3.1-2.56,5.78-3.37,8a31.08,31.08,0,0,0-1.86,6.69v2a15.16,15.16,0,0,1-.06,1.8c-.15.9-.59,1.34-1.32,1.34a1.64,1.64,0,0,1-.51-.06c-1.22-.15-1.83-1.22-1.83-3.19a23.59,23.59,0,0,1,1.16-6.4,35.66,35.66,0,0,1,2.09-5.52q2.1-4.59,4.07-8.49,1.45-2.83,3.49-6.5c.81-1.48,2-3.49,3.43-6a75.9,75.9,0,0,0-6.34,7.73q-3.25,4.37-6.8,9.65l-5.17,7.79a7.08,7.08,0,0,1-1.89,2,3.23,3.23,0,0,1-1.77.64,1.6,1.6,0,0,1-1.31-.61,2.46,2.46,0,0,1-.49-1.6,25.57,25.57,0,0,1,1.22-7.61,49.49,49.49,0,0,1,3.31-8q1.68-3.19,2.62-5.12c.81-1.66,1.31-2.71,1.51-3.14q-2.1,1.7-6.16,8.14-3.44,5.46-7.33,12.67-3.42,6.39-5.29,10.35c-.5,1-1,2-1.45,3a2.45,2.45,0,0,1-2.21,1.51c-.81,0-1.22-.39-1.22-1.16a7.54,7.54,0,0,1,.93-2.91c.82-1.55,1.38-2.63,1.69-3.25a137.56,137.56,0,0,1,6.51-12.21,133,133,0,0,1,8.6-13q3.42-4.47,3.83-4.94a40.49,40.49,0,0,1,3.49-3.9,4.8,4.8,0,0,1,2.85-1.51c1.05,0,1.57.49,1.57,1.46a4.93,4.93,0,0,1-.29,1.57q-5,10-7.62,16-2.89,6.51-2.9,9.65c.7-1.05,2-3,4-5.81l4.3-6.17q2.55-3.66,4-5.86a66.44,66.44,0,0,1,7.56-9.59q2.55-2.5,4-2.51a1.13,1.13,0,0,1,1,.44A1.89,1.89,0,0,1,383.27,328.92Z"/><path class="cls-3" d="M408.72,332.3q0,3.82-5.4,8.48-4.89,4.19-7.27,4.19c-1.78,0-2.63-.41-2.56-1.23s.85-1.47,2.55-2a13.89,13.89,0,0,0,6.65-4q2.83-2.91,2.83-5.11c0-1-.61-1.57-1.85-1.57q-3.24,0-8,3.48-5.67,4.11-5.68,9.05,0,1.86,4.54,9.57a13.39,13.39,0,0,1,2.09,6.74q0,3.94-4.71,6.38a15.88,15.88,0,0,1-7.32,1.92,9,9,0,0,1-6.22-2,5.83,5.83,0,0,1-1.92-4.46,6.21,6.21,0,0,1,1.86-4.35,5.38,5.38,0,0,1,3.9-2,2.72,2.72,0,0,1,1.36.29,1,1,0,0,1,.56.75c0,.7-.62,1.28-1.86,1.75a4,4,0,0,0-1.89,1.25,2.86,2.86,0,0,0-.61,1.83,3.66,3.66,0,0,0,1.28,2.73,4.52,4.52,0,0,0,3.25,1.22h1.05a8.53,8.53,0,0,0,5.52-1.88,5.29,5.29,0,0,0,2.32-4q0-3.13-4.47-8.94a10.51,10.51,0,0,1-2.15-6.44q0-5.28,4.94-10.27A17.08,17.08,0,0,1,404,328.23a5,5,0,0,1,3.35,1.16A3.66,3.66,0,0,1,408.72,332.3Z"/><path class="cls-1" d="M308.81,312.94a18.15,18.15,0,0,1-2.7,8.79,42.67,42.67,0,0,1-7,9.12,5.29,5.29,0,0,1-1.58,1.17,3.81,3.81,0,0,1-1.57.33c-1.5,0-2.25-.69-2.25-2.08a3.26,3.26,0,0,1,.5-1.67,6.37,6.37,0,0,1,1.58-1.67,31,31,0,0,0,7.56-8c1.6-2.5,2.41-4.66,2.41-6.5s-.81-2.75-2.41-2.75q-3.57,0-9.55,5.82a102.51,102.51,0,0,0-10.22,12.15A82.73,82.73,0,0,0,276.84,338a55.83,55.83,0,0,0-3.86,9.23,25.6,25.6,0,0,0-1.29,7.24,8.82,8.82,0,0,0,1.49,5.49,4.83,4.83,0,0,0,4,1.91q4,0,8.72-3.65a42.79,42.79,0,0,0,9.88-11.71,8.42,8.42,0,0,1,1.74-1.74,2.83,2.83,0,0,1,1.58-.67c.34,0,.5.2.5.58a4,4,0,0,1-.5,1.83,44.74,44.74,0,0,1-11.87,14.61q-6.32,4.9-12,4.9a8.8,8.8,0,0,1-6.64-2.58q-2.49-2.57-2.49-7.73a28.68,28.68,0,0,1,1.45-8.48,59.36,59.36,0,0,1,4.69-10.56A80.28,80.28,0,0,1,286.14,317q10.22-10.89,16.69-10.89a5.42,5.42,0,0,1,4.23,2A7.14,7.14,0,0,1,308.81,312.94Z"/><path class="cls-1" d="M343.54,324c0,1.47-1.05,4-3.14,7.73q-4.06,7.14-4.19,7.38c-.85,1.7-1.85,3.82-3,6.33-1.43,3.1-2.56,5.78-3.37,8a32.49,32.49,0,0,0-1.86,6.69v2a15.41,15.41,0,0,1-.06,1.8c-.15.89-.59,1.33-1.31,1.33a1.72,1.72,0,0,1-.52-.06c-1.22-.15-1.83-1.22-1.83-3.19a23.59,23.59,0,0,1,1.16-6.4,35,35,0,0,1,2.1-5.52q2.08-4.59,4.07-8.48c1-1.9,2.13-4.07,3.48-6.51.82-1.48,2-3.49,3.43-6.05a74.77,74.77,0,0,0-6.33,7.73q-3.25,4.36-6.8,9.65-.48.71-5.18,7.79a7.08,7.08,0,0,1-1.89,2,3.2,3.2,0,0,1-1.77.64,1.6,1.6,0,0,1-1.31-.61,2.42,2.42,0,0,1-.49-1.59,25.91,25.91,0,0,1,1.22-7.62,49.87,49.87,0,0,1,3.31-8q1.69-3.19,2.62-5.12c.81-1.66,1.32-2.71,1.51-3.14q-2.08,1.69-6.16,8.14-3.43,5.46-7.32,12.67Q306.46,358,304.6,362c-.51,1-1,2-1.46,3a2.45,2.45,0,0,1-2.21,1.51c-.81,0-1.22-.38-1.22-1.16a7.54,7.54,0,0,1,.93-2.91c.82-1.54,1.38-2.63,1.69-3.25A137.56,137.56,0,0,1,308.84,347a134.19,134.19,0,0,1,8.6-13q3.44-4.47,3.84-4.94a36.5,36.5,0,0,1,3.49-3.89,4.75,4.75,0,0,1,2.84-1.52c1.05,0,1.57.49,1.57,1.46a4.65,4.65,0,0,1-.29,1.57q-4.93,10-7.61,16-2.91,6.51-2.91,9.65c.7-1.05,2-3,4-5.81,1.43-2.06,2.87-4.11,4.3-6.16,1.71-2.44,3-4.4,4-5.87a67.15,67.15,0,0,1,7.56-9.59c1.71-1.67,3-2.5,4-2.5a1.12,1.12,0,0,1,1,.43A1.9,1.9,0,0,1,343.54,324Z"/><path class="cls-1" d="M378.3,324c0,1.47-1.05,4-3.14,7.73q-4.07,7.14-4.19,7.38c-.85,1.7-1.86,3.82-3,6.33-1.43,3.1-2.56,5.78-3.37,8a31.85,31.85,0,0,0-1.86,6.69v2a15.41,15.41,0,0,1-.06,1.8c-.15.89-.59,1.33-1.31,1.33a1.72,1.72,0,0,1-.52-.06C359.61,365,359,363.94,359,362a23.59,23.59,0,0,1,1.16-6.4,35,35,0,0,1,2.1-5.52q2.08-4.59,4.06-8.48,1.46-2.85,3.49-6.51c.82-1.48,2-3.49,3.43-6.05a75.9,75.9,0,0,0-6.34,7.73q-3.25,4.36-6.8,9.65l-5.17,7.79a7.08,7.08,0,0,1-1.89,2,3.23,3.23,0,0,1-1.77.64,1.6,1.6,0,0,1-1.31-.61,2.42,2.42,0,0,1-.49-1.59,25.91,25.91,0,0,1,1.22-7.62,49.87,49.87,0,0,1,3.31-8q1.69-3.19,2.62-5.12c.81-1.66,1.31-2.71,1.51-3.14Q356,332.51,352,339q-3.44,5.46-7.33,12.67Q341.22,358,339.35,362c-.5,1-1,2-1.45,3a2.45,2.45,0,0,1-2.21,1.51c-.81,0-1.22-.38-1.22-1.16a7.54,7.54,0,0,1,.93-2.91c.82-1.54,1.38-2.63,1.69-3.25A137.56,137.56,0,0,1,343.6,347a134.19,134.19,0,0,1,8.6-13q3.42-4.47,3.84-4.94a37.85,37.85,0,0,1,3.48-3.89,4.8,4.8,0,0,1,2.85-1.52c1.05,0,1.57.49,1.57,1.46a4.93,4.93,0,0,1-.29,1.57q-4.93,10-7.61,16-2.91,6.51-2.91,9.65c.7-1.05,2-3,4-5.81,1.43-2.06,2.87-4.11,4.3-6.16,1.71-2.44,3-4.4,4-5.87a66.44,66.44,0,0,1,7.56-9.59q2.55-2.5,4-2.5a1.12,1.12,0,0,1,1,.43A1.9,1.9,0,0,1,378.3,324Z"/><path class="cls-1" d="M403.75,327.33q0,3.82-5.4,8.48-4.89,4.19-7.27,4.19c-1.78,0-2.63-.41-2.56-1.22s.85-1.47,2.55-2a13.89,13.89,0,0,0,6.65-4q2.83-2.91,2.84-5.11c0-1.05-.62-1.57-1.86-1.57q-3.24,0-8,3.48-5.67,4.13-5.67,9.05,0,1.86,4.53,9.58a13.23,13.23,0,0,1,2.09,6.73q0,3.94-4.7,6.38a15.92,15.92,0,0,1-7.33,1.92,9,9,0,0,1-6.22-2,5.81,5.81,0,0,1-1.92-4.46,6.25,6.25,0,0,1,1.86-4.35,5.38,5.38,0,0,1,3.9-2,2.72,2.72,0,0,1,1.36.29,1,1,0,0,1,.56.76q0,1-1.86,1.74a4.09,4.09,0,0,0-1.89,1.25,2.86,2.86,0,0,0-.61,1.83,3.66,3.66,0,0,0,1.28,2.73,4.48,4.48,0,0,0,3.25,1.22h1.05a8.47,8.47,0,0,0,5.52-1.88,5.27,5.27,0,0,0,2.32-4q0-3.14-4.47-8.93a10.54,10.54,0,0,1-2.15-6.45q0-5.28,4.94-10.27A17.1,17.1,0,0,1,399,323.26a5,5,0,0,1,3.35,1.16A3.67,3.67,0,0,1,403.75,327.33Z"/><path class="cls-3" d="M444.78,113.24l-3.5,3A162.13,162.13,0,0,1,358.76,153c-15.1,2.16-30.67,1.74-46.15,4.23A87.8,87.8,0,0,0,290,163.79c-.85.4-1.7.81-2.53,1.24l-9.84-18.64-.9-1.7-1.88.27L250,148.52c-.56-.61-1.12-1.22-1.69-1.82l5.44-24.47.38-1.73-1.48-.93-19.36-12.19-1.45-.91-1.33,1L210.72,123.1c-.89-.29-1.79-.57-2.7-.83l-7.56-24L200,96.74l-1.54-.06-22.86-.87-1.49-.06-.55,1.37-9.44,23.56q-1.53.31-3.06.69l-18.69-17.15-1-.91-1.18.63L120,114.61l-1.13.6.18,1.26,3.63,25.29c-.85.76-1.69,1.54-2.51,2.33l-24.94-5.55-1.11-.24-.59.94L81.3,158.6l-.57.91.66.83,15.88,20.2c-.4,1.19-.77,2.39-1.12,3.6l-24.5,7.71-.88.27,0,.91-.87,22.85,0,.86.79.31,24,9.61c.27,1.34.57,2.67.9,4L78,249.69l-.47.52.32.61,10.68,20.24.3.56.63-.09,25.77-3.7q1.44,1.64,3,3.2l-5.66,25.42-.1.48.4.26,19.36,12.18.37.23.33-.26,20.57-16.18c1.49.5,3,1,4.5,1.39l7.86,25,.08.27h.27l22.86.87h.21l.08-.2L199.16,296c1.64-.32,3.28-.69,4.9-1.11l19.4,17.81,0,0,.05,0,22.94-10.2-23,10-19.31-18-.07-.06-.1,0c-1.68.42-3.38.8-5.09,1.12l-.11,0,0,.1-9.93,24.27-22.36-1-7.67-25-.08-.25-.25-.07c-1.67-.47-3.32-1-4.95-1.57l-.26-.09-.22.17-20.56,15.92L114,296.29,119.86,271l.1-.42-.3-.31q-1.78-1.85-3.47-3.8l-.28-.33-.44.06-25.59,3.48L80,250.53l17.55-18.84.4-.43-.14-.58q-.63-2.51-1.11-5l-.11-.59-.56-.23-23.68-9.69,1-21.09,24.41-7.48.72-.22.21-.73q.7-2.48,1.55-4.9l.26-.72-.48-.61L84.42,159.33,95.57,141.9l24.7,5.69.89.21.67-.65c1.22-1.18,2.47-2.33,3.76-3.43l.7-.61-.13-.92-3.39-25,18-9.32L159.13,125l.79.73,1.06-.26c1.65-.42,3.31-.78,5-1.1l1.07-.2.42-1,9.45-23.09,19.81.91L204,124.81l.37,1.18,1.21.35c1.63.46,3.24,1,4.85,1.53l1.17.42,1-.78,19.55-15.14,16.35,10.46L243,146.91l-.31,1.37,1,1q1.76,1.81,3.4,3.73l.92,1.07,1.42-.2,24.31-3.3,8.93,17.21A49.15,49.15,0,0,0,271,177.93a40.23,40.23,0,0,0-8.78,20.32,34,34,0,0,0,.41,11.2,29.52,29.52,0,0,0,1.06,3.39,43.21,43.21,0,0,0-4.08-3.17c-.89-.58-1.79-1.16-2.73-1.68l-.7-.39-.94-.5L253.05,206l-1.12-.52-.27-.13-.14-.06c-.06,0,0,.08,0,.11l0,.61c0,.81-.1,1.61-.12,2.45l-.15,3.71-.45,12.48-.15,4.43,0,1.61v.2c0,.07,0,0,0,0l0-.09c0-.12-.07-.24-.11-.36a7,7,0,0,0-.3-.7,6.64,6.64,0,0,0-.77-1.23c-.08-.1-.15-.2-.24-.3l-.35-.39c-.36-.36-.71-.74-1.1-1.06a15.4,15.4,0,0,0-2.48-1.78,11.64,11.64,0,0,0-1.36-.7,6.17,6.17,0,0,0-.88-.35c-.32-.11-.64-.24-1-.33-.64-.16-1.27-.33-1.92-.46l-.49-.11-.12,0-.06,0s0,0,0,.06v.24l0,1c0,1.24.23,2.91.29,3.66l.51,5.74,2.07,23,4.23,45.91-3.15-46-1.62-23-.41-5.75-.14-2c0-.24-.15-.66.25-.46s.53.15.79.23l.37.15a3.76,3.76,0,0,1,.45.21,10.39,10.39,0,0,1,1.19.63,14.35,14.35,0,0,1,2.17,1.61c.34.29.64.64,1,1,.11.14.37.41.58.7a7.86,7.86,0,0,1,.64.95l.31.5a2.13,2.13,0,0,1,.16.28l.16.41.63,1.68.09.23.11.34.21.66.43,1.34.43,1.35.49,1.59.12-.59a1.92,1.92,0,0,1,.11-.44l.18-.24c.05-.05.08.11.13.15l0,.06s0,.09,0-.06l0-.57.23-4.63.39-8,.64-12.47.13-2.52,0-.62V209c0-.07.09,0,.12,0l.29.14.55.29.43.24.66.38c.87.5,1.72,1.06,2.56,1.62a42.3,42.3,0,0,1,8.87,8.18l2.09-1.57c-3.88-5.67-5.1-12.88-4.14-19.7a37.33,37.33,0,0,1,8.3-18.72,50.07,50.07,0,0,1,18-13.1,85.07,85.07,0,0,1,21.78-6.16c15.07-2.35,30.6-1.85,46.11-3.94a165.8,165.8,0,0,0,71.32-27.51,225.67,225.67,0,0,0-34,58c-5.73,14.43-10.29,29.2-17.62,42.56a81.45,81.45,0,0,1-13.41,18.2A55.2,55.2,0,0,1,347,260.42a43.82,43.82,0,0,1-4.21,1.34,27.6,27.6,0,0,0-5,1.1l.69,2.89a51.16,51.16,0,0,0,5.5-1.16,27.36,27.36,0,0,1,9.24.48,28.28,28.28,0,0,1,6.88,2.58l1.6.93,1.52,1c.49.36,1,.77,1.44,1.15l.3.24.12.11.24.22c.16.14.3.31.45.47l.11.12.05.06h-.08l-.31,0-2,.24-7.69.87L339,275l2.71,8.06.77,2.27c.51.82-.43.37-.91.34l-3-.55c-1.19-.19-2.38-.28-3.57-.43s-2.38-.28-3.57-.37l-3.59-.15a97.24,97.24,0,0,0-76.12,32.9A97.19,97.19,0,0,1,327.75,286l3.51.2c1.17.11,2.33.29,3.49.43s2.33.26,3.48.47l4,.79c1.49.11,4.6,1.63,3-1l-1.45-4.48L342,277l14-1.39,7.71-.77,2.49-.26c1.06-.1,2.14-.21,3.12-.36l1.51-.2.38-.05c0-.06-.15-.18-.22-.27l-.51-.59c-.7-.77-1.35-1.58-2.1-2.31l-1.1-1.12-.55-.56a2.09,2.09,0,0,0-.23-.22l-.2-.16c-.52-.42-1-.87-1.58-1.28l-1.66-1.16-1.74-1a31.08,31.08,0,0,0-7.55-2.92c-.84-.2-1.7-.31-2.55-.45a59.65,59.65,0,0,0,16.58-11.59A84,84,0,0,0,382,231.41c7.64-13.74,12.3-28.65,18.06-42.85a221.65,221.65,0,0,1,47.49-72.48Z"/><path class="cls-3" d="M280.35,260.31l3.21-4.77c1.08-1.58,2.12-3.2,3.27-4.73,2.29-3.08,4.45-6.25,6.87-9.23a296,296,0,0,1,30.88-34.11,302.18,302.18,0,0,1,75.88-52.07,274,274,0,0,0-78,49.81,282.68,282.68,0,0,0-31.73,34.08c-2.47,3-4.68,6.21-7,9.32-1.17,1.55-2.23,3.18-3.34,4.78l-3.28,4.82c-4.28,6.5-8.25,13.15-12.21,19.79-7.84,13.3-15.59,26.62-25.17,38.52-1.2,1.48-2.39,3-3.66,4.4-.62.71-1.24,1.44-1.88,2.15l-2,2.05c-1.34,1.35-2.61,2.77-4,4.07L224,333a129.06,129.06,0,0,1-18.48,13.42c-26.17,15.67-57.86,22.45-88.47,17.84l5.71,1c1,.15,1.91.36,2.87.46l2.89.29,2.88.3c1,.09,1.93.21,2.9.22l5.81.2c.49,0,1,.05,1.46,0l1.45,0,2.91-.09c1.94-.06,3.89-.08,5.81-.31l5.81-.56c1.92-.27,3.84-.6,5.76-.9,1-.16,1.92-.29,2.88-.48l2.85-.64c1.89-.44,3.81-.8,5.68-1.33l5.61-1.63,1.41-.41,1.37-.48,2.76-1c3.71-1.22,7.24-2.87,10.84-4.4,1.76-.82,3.49-1.74,5.24-2.61l2.61-1.32,2.53-1.48a124.8,124.8,0,0,0,19.18-13.46l4.39-3.89c1.45-1.33,2.77-2.77,4.16-4.15l2.07-2.09c.67-.72,1.31-1.46,2-2.19,1.32-1.44,2.56-2.95,3.81-4.46,9.87-12.15,17.76-25.61,25.66-38.86C272.24,273.37,276.16,266.74,280.35,260.31Z"/><path class="cls-3" d="M203.57,164.75a49.35,49.35,0,0,0-37.66-2.15,49.26,49.26,0,0,0-28.35,25.68,49.35,49.35,0,0,0,9.06,55,49.28,49.28,0,0,0,84.81-32.31A48.33,48.33,0,0,1,227,229.2a47,47,0,0,1-45.49,27.11A47.17,47.17,0,1,1,203,165.9a47.14,47.14,0,0,1,25.32,26.48,48.25,48.25,0,0,1,3.07,18.55,49.3,49.3,0,0,0-27.86-46.18Z"/><path class="cls-1" d="M435.45,101.51l-3.39,3.13a162.18,162.18,0,0,1-81.13,39.73c-15,2.71-30.58,2.85-46,5.9a87.75,87.75,0,0,0-22.36,7.38q-1.26.63-2.49,1.32l-10.5-18.27-1-1.67-1.88.34-24.67,4.47c-.58-.6-1.16-1.18-1.76-1.76l4.55-24.65.33-1.75-1.52-.87-19.79-11.48-1.48-.86-1.29,1.1-19.24,16.29c-.91-.26-1.82-.51-2.73-.74l-8.43-23.75-.52-1.47h-1.55l-22.87,0h-1.5l-.5,1.39-8.57,23.88q-1.53.38-3,.81L132.9,103.48l-1-.88-1.15.67-19.83,11.4-1.11.64.22,1.25,4.55,25.15c-.82.79-1.63,1.59-2.42,2.42L87,139.48l-1.11-.2-.57,1L73.86,160l-.53.92.68.81,16.6,19.61c-.35,1.2-.68,2.41-1,3.63l-24.21,8.6-.87.3v.91l0,22.87v.86l.8.29,24.33,8.73c.32,1.32.67,2.64,1,3.94L73.91,251.18l-.45.54.34.6,11.4,19.83.32.56.63-.12L111.77,268c1,1.05,2,2.09,3.08,3.09l-4.73,25.61-.09.48.42.24,19.79,11.48.37.21.32-.27,20-16.92c1.5.45,3,.86,4.54,1.23l8.76,24.67.09.26h.27l22.88,0h.21l.07-.2,8.9-24.78c1.63-.38,3.25-.82,4.85-1.29l20,17.09,0,0,.05,0,22.56-11-22.59,10.85-19.94-17.27-.08-.07-.1,0c-1.66.48-3.35.92-5,1.3l-.11,0,0,.11-9,24.62-22.39-.21-8.57-24.73-.08-.24-.26-.07c-1.68-.41-3.35-.88-5-1.39l-.26-.08-.21.18-20,16.66-18.92-11.16,4.91-25.51.08-.42-.31-.3c-1.24-1.19-2.45-2.41-3.61-3.67l-.3-.32-.43.07L86.46,270.7,75.87,252l16.85-19.46.39-.45-.17-.57c-.48-1.65-.91-3.32-1.29-5l-.13-.59-.57-.21-24-8.82.2-21.11,24.13-8.36.71-.25.18-.74q.61-2.49,1.37-5l.23-.73-.5-.59L77,160.65l10.51-17.82,24.89,4.79.9.17.64-.67q1.77-1.83,3.64-3.57l.68-.63-.16-.92-4.3-24.81,17.64-10,19,16.44.81.7,1.05-.3c1.64-.47,3.29-.9,4.94-1.27l1.07-.24.38-1,8.6-23.41,19.83.18,8.16,23.53.4,1.17,1.22.3c1.65.4,3.28.86,4.9,1.36l1.2.37,1-.81,19-15.84,16.72,9.86L235,142.49l-.26,1.37,1,1q1.81,1.74,3.53,3.6l1,1,1.42-.24,24.17-4.19,9.55,16.89a49,49,0,0,0-11.23,10.53,40.22,40.22,0,0,0-8,20.62,34,34,0,0,0,.81,11.18,30.07,30.07,0,0,0,1.18,3.34,45.6,45.6,0,0,0-4.18-3c-.92-.55-1.84-1.09-2.79-1.58l-.72-.36-.95-.47-2.26-1-1.13-.47-.28-.12-.14-.06s0,.08,0,.11v.62c0,.81,0,1.61,0,2.45v16.2l0,4.44v1.81c0,.06,0,0,0,0l0-.09c0-.11-.07-.23-.12-.35a5.32,5.32,0,0,0-.32-.69,5.94,5.94,0,0,0-.82-1.2,2.26,2.26,0,0,0-.25-.29l-.36-.38c-.38-.34-.73-.71-1.14-1a15.36,15.36,0,0,0-2.54-1.69,13.54,13.54,0,0,0-1.39-.65,6.66,6.66,0,0,0-.88-.31c-.33-.1-.65-.22-1-.3-.64-.14-1.27-.29-1.93-.39l-.49-.09-.13,0h-.06s0,0,0,.05l0,.24.08,1c.09,1.24.34,2.9.42,3.65l.72,5.72,2.9,22.87,5.9,45.72L239.36,252l-2.46-22.92-.62-5.73-.21-2c0-.25-.17-.66.23-.47s.54.13.8.2l.38.14a3.12,3.12,0,0,1,.46.18c.41.18.81.38,1.21.6a13.48,13.48,0,0,1,2.22,1.53,12.38,12.38,0,0,1,1,.92c.12.13.39.4.62.68a10,10,0,0,1,.67.92l.32.49a1.27,1.27,0,0,1,.17.27l.17.41.7,1.66.1.22.12.33.23.66.48,1.33.48,1.33.55,1.57.1-.6a1.84,1.84,0,0,1,.09-.44l.17-.25s.09.11.13.16l0,.05s0,.09,0-.06v-.57l.05-4.64.11-8,.18-12.48,0-2.52,0-.62v-.16c0-.06.08,0,.12,0l.29.13.56.27.44.23.67.35c.89.47,1.76,1,2.62,1.53a41.94,41.94,0,0,1,9.16,7.85l2-1.64c-4.08-5.53-5.56-12.69-4.85-19.55a37.41,37.41,0,0,1,7.61-19,50.19,50.19,0,0,1,17.51-13.74,84.76,84.76,0,0,1,21.54-6.94c15-2.89,30.51-3,45.93-5.62A165.5,165.5,0,0,0,421.84,118a225.65,225.65,0,0,0-31.91,59.18c-5.2,14.63-9.22,29.56-16.07,43.18A81.26,81.26,0,0,1,361.12,239a55.19,55.19,0,0,1-18.05,13.15,43.81,43.81,0,0,1-4.16,1.49,28,28,0,0,0-5,1.28l.79,2.87a48.76,48.76,0,0,0,5.45-1.36,27.37,27.37,0,0,1,9.25.15,28.24,28.24,0,0,1,7,2.33l1.62.86,1.56,1c.51.34,1,.72,1.48,1.08l.32.24.12.1.24.21c.17.14.31.3.47.46l.12.11.05.06h-.08l-.31.05-2,.31-7.66,1.15L335.62,267l3,7.95.86,2.24c.53.8-.42.39-.9.38l-3-.44c-1.19-.16-2.39-.2-3.58-.3s-2.39-.2-3.58-.25l-3.59,0a97.3,97.3,0,0,0-74.88,35.64,97,97,0,0,1,47-30.09,95.77,95.77,0,0,1,27.84-3.72l3.52.07c1.16.06,2.33.2,3.5.3s2.34.18,3.49.34l4,.65c1.51,0,4.67,1.46,3-1.12l-1.61-4.42-1.93-5.38,14-1.9,7.68-1.05,2.47-.34c1.07-.15,2.14-.29,3.11-.47l1.51-.26.37-.07c0-.06-.15-.18-.22-.26L367,264c-.72-.74-1.4-1.53-2.18-2.23l-1.14-1.08-.57-.54a2.68,2.68,0,0,0-.24-.21l-.2-.15c-.54-.41-1.07-.84-1.62-1.22l-1.71-1.11-1.78-1a31.32,31.32,0,0,0-7.64-2.65c-.85-.17-1.71-.25-2.58-.35a59.66,59.66,0,0,0,16.16-12.19A84.53,84.53,0,0,0,377,221.89c7.13-14,11.24-29.09,16.49-43.48a221.66,221.66,0,0,1,44.82-74.16Z"/><path class="cls-1" d="M276.47,254.45l3-4.88c1-1.62,2-3.27,3.1-4.85,2.17-3.16,4.22-6.41,6.53-9.47A297.1,297.1,0,0,1,318.75,200a302.43,302.43,0,0,1,73.94-54.79,273.68,273.68,0,0,0-76.11,52.61,282.21,282.21,0,0,0-30.47,35.21c-2.36,3.09-4.45,6.37-6.67,9.57-1.12,1.59-2.12,3.25-3.16,4.89l-3.1,4.94c-4,6.65-7.77,13.45-11.49,20.22-7.35,13.57-14.61,27.17-23.76,39.41-1.14,1.52-2.27,3.06-3.49,4.53-.6.73-1.19,1.49-1.8,2.21L230.73,321c-1.28,1.41-2.5,2.87-3.84,4.22l-4.09,4a129.54,129.54,0,0,1-18,14.08c-25.59,16.61-57,24.53-87.77,21l5.75.77c1,.12,1.91.3,2.88.35l2.89.2,2.9.19c1,.06,1.93.14,2.9.11h5.82c.48,0,1,0,1.45,0l1.45-.09,2.91-.2c1.93-.13,3.88-.22,5.8-.52l5.78-.77c1.91-.34,3.81-.74,5.72-1.11.95-.2,1.91-.36,2.86-.58l2.82-.74c1.88-.52,3.78-.95,5.64-1.54l5.55-1.83,1.38-.46,1.36-.54,2.72-1.08c3.66-1.36,7.13-3.14,10.67-4.79,1.74-.89,3.43-1.87,5.14-2.8l2.56-1.42,2.48-1.57a125.08,125.08,0,0,0,18.68-14.14l4.25-4c1.39-1.38,2.67-2.87,4-4.3l2-2.17c.64-.74,1.26-1.5,1.88-2.25,1.27-1.49,2.45-3.05,3.65-4.6,9.42-12.5,16.82-26.24,24.23-39.76C268.84,267.79,272.51,261,276.47,254.45Z"/><path class="cls-1" d="M196.27,161.74a49.2,49.2,0,0,0-65.11,25.91,49.3,49.3,0,0,0,11.05,54.59,49.26,49.26,0,0,0,69.66-1.07,49.07,49.07,0,0,0,13.92-34.29,48.31,48.31,0,0,1-3.74,18.42,47.22,47.22,0,1,1,0-36.85,48.32,48.32,0,0,1,3.74,18.43,49.32,49.32,0,0,0-29.52-45.14Z"/><path class="cls-3" d="M304.89,380.69c0,.88-.25,1.41-.75,1.58a13.35,13.35,0,0,1-3.23.24,36.18,36.18,0,0,0-4.42.28,39.36,39.36,0,0,0-5.7,1.21q-2.37,3.11-4.28,6a60.18,60.18,0,0,0-3.12,5.3c1.54-.25,3.21-.54,5-.85A27.62,27.62,0,0,1,293,394a1.26,1.26,0,0,1,1,.52,1.91,1.91,0,0,1,.41,1.19c0,.88-.48,1.33-1.44,1.33a37.75,37.75,0,0,0-5.85.72l-5.92,1.05a61,61,0,0,0-3.26,6.41,56.24,56.24,0,0,0-3.26,8.4c-.15.73-.29,1.45-.44,2.15a2.1,2.1,0,0,1-2.16,1.72c-.95,0-1.43-.52-1.43-1.55a6.91,6.91,0,0,1,.27-1.69q.29-1,.72-2.4a60.74,60.74,0,0,1,4.2-8.79q2.82-5.19,6.36-11.11,2.1-3.52,4.25-7.07a1,1,0,0,1-1.16-1.16q0-1.77,5.17-3.15a38.39,38.39,0,0,1,9.92-1.38,16.55,16.55,0,0,1,3.32.25C304.5,379.61,304.89,380,304.89,380.69Z"/><path class="cls-3" d="M310.08,408.1c0,1.29-1.35,3-4,5.19q-4.32,3.49-7.74,3.49a4.15,4.15,0,0,1-3-1.3,4.32,4.32,0,0,1-1.3-3.18,11.51,11.51,0,0,1,1.44-5.19,14.23,14.23,0,0,1,2.76-3.93,18.79,18.79,0,0,1,3.87-3.29,5.83,5.83,0,0,1,2.76-1,2.31,2.31,0,0,1,1.71.66,2.2,2.2,0,0,1,.67,1.6,7.62,7.62,0,0,1-1.88,4.26,18.6,18.6,0,0,1-3.21,3.37,9,9,0,0,1-2.37,1.6,19.06,19.06,0,0,1-2.44,1,2.83,2.83,0,0,0,.59,2,2.07,2.07,0,0,0,1.62.63,8.15,8.15,0,0,0,4.23-1.66,20.27,20.27,0,0,0,4.45-4c.59-.7,1-1.05,1.33-1.05S310.08,407.58,310.08,408.1Zm-5.64-5.36a.7.7,0,0,0-.66-.77,3.31,3.31,0,0,0-2.1,1.21,19.41,19.41,0,0,0-2.13,2.46,19.8,19.8,0,0,0-1.79,2.74q1.82,0,4.25-2.1T304.44,402.74Z"/><path class="cls-3" d="M324.67,400.64a3.87,3.87,0,0,1-.39,1.66.86.86,0,0,1,.33.77q0,1.11-1.71,4.81t-1.71,5a2.52,2.52,0,0,0,1.32,2.49,2,2,0,0,1,1.33,1.77.86.86,0,0,1-.44.77,2.12,2.12,0,0,1-1.16.28,3.28,3.28,0,0,1-2.32-.94,4.05,4.05,0,0,1-1.22-3.1,4.82,4.82,0,0,1,.14-.94c.09-.4.15-.7.19-.88q-2.76,4.63-5.64,4.64-2.53,0-2.87-3.53,0-4.26,3.59-9.46,3.87-5.58,7.68-5.58a3.5,3.5,0,0,1,2.11.58A2,2,0,0,1,324.67,400.64Zm-2.16,2.1c-.25-1-.75-1.44-1.49-1.44-1.29,0-2.85,1.39-4.7,4.17s-2.76,5-2.76,6.72a1.41,1.41,0,0,0,.72,1.44q1.22.38,3.26-2.82Q320,406.78,322.51,402.74Z"/><path class="cls-3" d="M344.34,395.33c.15,1-.63,1.61-2.32,1.83a30.77,30.77,0,0,0-6,1.21,87.24,87.24,0,0,0-4.59,9.56,15.22,15.22,0,0,0-1.32,4.87c0,.81.31,1.21.94,1.21s1.7-.61,2.9-1.85a16.24,16.24,0,0,0,3-4.23c.29-.66.66-1,1.1-1s.88.26.88,1q0,2.32-3.06,5.61c-2.05,2.2-3.92,3.29-5.61,3.29a3.18,3.18,0,0,1-2.38-1.05,4,4,0,0,1-1-2.83,18.66,18.66,0,0,1,1.93-7,53.85,53.85,0,0,1,3.32-6.27,5.43,5.43,0,0,1-1.77.45c-.85,0-1.27-.44-1.27-1.32,0-.7.52-1.18,1.57-1.43s2.13-.52,3.24-.77a50.6,50.6,0,0,1,4.14-6,3.68,3.68,0,0,1,2.49-1.57c.55-.08.83.26.83,1a5,5,0,0,1-1.16,2.49c-1.15,1.59-1.81,2.54-2,2.87.88-.22,1.69-.4,2.43-.55a10.3,10.3,0,0,1,2-.22C343.79,394.56,344.34,394.82,344.34,395.33Z"/><path class="cls-3" d="M358.32,406.17q0,2.26-2.94,6-3.28,4.1-6.28,4.09a1.67,1.67,0,0,1-1.47-.69,3.25,3.25,0,0,1-.47-1.85,12,12,0,0,1,1.27-4.75,35.41,35.41,0,0,1,3.32-5.75,28.75,28.75,0,0,0-9.18,11.94c-.66,1.58-1.38,2.38-2.15,2.38s-1.22-.5-1.22-1.5c0-.84.63-2.69,1.89-5.52,1-2.29,2.05-4.35,3-6.19q4-7.31,8.6-17.41c1.4-3.13,2.66-4.7,3.76-4.7a1.32,1.32,0,0,1,1.5,1.49q0,1-2.41,5.14t-4.84,8.29a54.49,54.49,0,0,0-3.76,7.35,26.18,26.18,0,0,1,4.92-4,6.75,6.75,0,0,1,3.16-1.16c.89,0,1.33.37,1.33,1.11a2.79,2.79,0,0,1-.28,1l-3.7,5.86c-1.48,2.4-2.21,4-2.21,4.7,0,.51.24.77.72.77a2.93,2.93,0,0,0,2.15-1.05q.12-.1,3-4.64c.67-.92,1.25-1.38,1.77-1.38C358.18,405.67,358.32,405.83,358.32,406.17Z"/><path class="cls-3" d="M374.07,408.1q0,1.93-4,5.19c-2.88,2.33-5.45,3.49-7.74,3.49a4.15,4.15,0,0,1-3-1.3,4.32,4.32,0,0,1-1.3-3.18,11.51,11.51,0,0,1,1.44-5.19,14.23,14.23,0,0,1,2.76-3.93,18.79,18.79,0,0,1,3.87-3.29,5.87,5.87,0,0,1,2.76-1,2.35,2.35,0,0,1,1.72.66,2.19,2.19,0,0,1,.66,1.6,7.62,7.62,0,0,1-1.88,4.26,18.9,18.9,0,0,1-3.2,3.37,9.25,9.25,0,0,1-2.38,1.6,19.51,19.51,0,0,1-2.43,1,2.83,2.83,0,0,0,.58,2,2.1,2.1,0,0,0,1.63.63,8.15,8.15,0,0,0,4.22-1.66,20.27,20.27,0,0,0,4.45-4c.59-.7,1-1.05,1.33-1.05S374.07,407.58,374.07,408.1Zm-5.63-5.36a.71.71,0,0,0-.67-.77,3.31,3.31,0,0,0-2.1,1.21,20.3,20.3,0,0,0-2.12,2.46,19.09,19.09,0,0,0-1.8,2.74q1.81,0,4.25-2.1C367.62,404.88,368.44,403.7,368.44,402.74Z"/><path class="cls-3" d="M392.69,404.29c0,.77-.85,1.71-2.56,2.82a8.67,8.67,0,0,1-4.45,1.65,3,3,0,0,1-2-.6,2.39,2.39,0,0,1-.72-2,6.47,6.47,0,0,1,0-.87,44.67,44.67,0,0,0-4.64,5.52q-2.43,3.38-2.71,4.92a3.73,3.73,0,0,1-1,1.74,2.12,2.12,0,0,1-1.46.64c-.78,0-1.16-.37-1.16-1.11q0-2.21,4.11-9.78t6.06-7.57c.47,0,.75.17.82.5s-.73,1.55-2.21,3.64a14.77,14.77,0,0,0-1.65,2.82l5.19-4.64c2.17-1.84,3.67-2.76,4.48-2.76s1.1.24,1.1.72a2.15,2.15,0,0,1-.77,1.43,19.1,19.1,0,0,0-2.35,2.32c-.5.63-.71,1.11-.64,1.44s.34.55.89.55a5,5,0,0,0,2-.47,5.26,5.26,0,0,0,1.79-1.24,1.88,1.88,0,0,1,1.05-.55C392.44,403.39,392.69,403.66,392.69,404.29Z"/><path class="cls-1" d="M300.89,376.7c0,.88-.24,1.41-.74,1.57a12.67,12.67,0,0,1-3.23.25,36.34,36.34,0,0,0-4.43.28A39.55,39.55,0,0,0,286.8,380q-2.37,3.11-4.28,6a60.18,60.18,0,0,0-3.12,5.3c1.54-.25,3.21-.54,5-.85A26.6,26.6,0,0,1,289,390a1.23,1.23,0,0,1,1,.52,1.86,1.86,0,0,1,.42,1.19c0,.88-.48,1.33-1.44,1.33a38.79,38.79,0,0,0-5.86.71q-3,.56-5.91,1.05a63.16,63.16,0,0,0-3.26,6.41,57.09,57.09,0,0,0-3.26,8.4c-.15.74-.29,1.46-.44,2.16a2.09,2.09,0,0,1-2.16,1.71c-1,0-1.43-.51-1.43-1.54a6.84,6.84,0,0,1,.27-1.69q.29-1,.72-2.4a60.74,60.74,0,0,1,4.2-8.79q2.82-5.19,6.36-11.11,2.1-3.53,4.25-7.07a1,1,0,0,1-1.16-1.16q0-1.77,5.17-3.15a38.39,38.39,0,0,1,9.92-1.38,17.37,17.37,0,0,1,3.31.24C300.51,375.62,300.89,376,300.89,376.7Z"/><path class="cls-1" d="M306.09,404.11c0,1.29-1.35,3-4,5.19-2.88,2.32-5.46,3.49-7.74,3.49a4.15,4.15,0,0,1-3-1.3,4.32,4.32,0,0,1-1.3-3.18,11.68,11.68,0,0,1,1.43-5.2,14.19,14.19,0,0,1,2.77-3.92,18.79,18.79,0,0,1,3.87-3.29,5.87,5.87,0,0,1,2.76-1,2.32,2.32,0,0,1,1.71.67,2.17,2.17,0,0,1,.66,1.6,7.59,7.59,0,0,1-1.87,4.26,18.6,18.6,0,0,1-3.21,3.37,9.15,9.15,0,0,1-2.38,1.6,18.32,18.32,0,0,1-2.43,1,2.89,2.89,0,0,0,.58,2,2.11,2.11,0,0,0,1.63.63,8.18,8.18,0,0,0,4.23-1.66,20.27,20.27,0,0,0,4.45-4c.59-.7,1-1.05,1.33-1.05S306.09,403.59,306.09,404.11Zm-5.64-5.36a.72.72,0,0,0-.66-.78,3.34,3.34,0,0,0-2.1,1.22,19.41,19.41,0,0,0-2.13,2.46,19.8,19.8,0,0,0-1.79,2.74q1.82,0,4.25-2.11C299.64,400.88,300.45,399.71,300.45,398.75Z"/><path class="cls-1" d="M320.68,396.65a3.91,3.91,0,0,1-.39,1.66.85.85,0,0,1,.33.77q0,1.11-1.71,4.81t-1.71,5a2.52,2.52,0,0,0,1.32,2.49,2,2,0,0,1,1.33,1.77.86.86,0,0,1-.44.77,2.14,2.14,0,0,1-1.16.28,3.32,3.32,0,0,1-2.33-.94,4.1,4.1,0,0,1-1.21-3.1,4.82,4.82,0,0,1,.14-.94c.09-.4.15-.7.19-.88q-2.76,4.63-5.64,4.64-2.53,0-2.87-3.54,0-4.25,3.59-9.45,3.87-5.58,7.68-5.58a3.45,3.45,0,0,1,2.1.58A2,2,0,0,1,320.68,396.65Zm-2.16,2.1c-.26-1-.75-1.44-1.49-1.44-1.29,0-2.85,1.39-4.7,4.17s-2.76,5-2.76,6.72a1.4,1.4,0,0,0,.72,1.43q1.21.39,3.26-2.81Z"/><path class="cls-1" d="M340.35,391.34c.15,1-.63,1.61-2.32,1.83a30.77,30.77,0,0,0-6,1.21,87.24,87.24,0,0,0-4.59,9.56,15.16,15.16,0,0,0-1.32,4.87c0,.81.31,1.21.94,1.21s1.7-.61,2.9-1.85a16.24,16.24,0,0,0,3-4.23c.29-.66.66-1,1.1-1s.88.26.88,1q0,2.32-3.06,5.61t-5.61,3.29a3.17,3.17,0,0,1-2.38-1,4,4,0,0,1-1-2.83,18.66,18.66,0,0,1,1.93-7,53.05,53.05,0,0,1,3.32-6.27,5.49,5.49,0,0,1-1.77.45c-.85,0-1.27-.44-1.27-1.32,0-.7.52-1.18,1.57-1.43s2.13-.52,3.24-.77a50.6,50.6,0,0,1,4.14-6,3.68,3.68,0,0,1,2.49-1.57c.55-.08.83.26.83,1a4.91,4.91,0,0,1-1.17,2.49c-1.14,1.58-1.8,2.54-2,2.87.88-.22,1.69-.4,2.43-.55a10.22,10.22,0,0,1,2-.22C339.8,390.57,340.35,390.83,340.35,391.34Z"/><path class="cls-1" d="M354.33,402.17q0,2.28-2.94,6-3.28,4.1-6.28,4.09a1.65,1.65,0,0,1-1.47-.69,3.19,3.19,0,0,1-.47-1.85,12,12,0,0,1,1.27-4.75,35.41,35.41,0,0,1,3.32-5.75,28.75,28.75,0,0,0-9.18,11.94c-.66,1.58-1.38,2.37-2.15,2.37s-1.22-.49-1.22-1.49q0-1.27,1.88-5.52c1-2.29,2.05-4.35,3.05-6.19q4-7.31,8.59-17.41c1.41-3.13,2.66-4.7,3.77-4.7a1.32,1.32,0,0,1,1.5,1.49q0,1-2.41,5.14t-4.84,8.29a54.49,54.49,0,0,0-3.76,7.35,25.79,25.79,0,0,1,4.92-4,6.71,6.71,0,0,1,3.16-1.16c.88,0,1.33.37,1.33,1.11a3,3,0,0,1-.28,1l-3.7,5.86c-1.48,2.4-2.21,4-2.21,4.7,0,.51.24.77.71.77a2.94,2.94,0,0,0,2.16-1.05c.07-.07,1.09-1.62,3-4.64q1-1.38,1.77-1.38C354.18,401.68,354.33,401.84,354.33,402.17Z"/><path class="cls-1" d="M370.08,404.11q0,1.93-4,5.19c-2.88,2.32-5.46,3.49-7.74,3.49a4.15,4.15,0,0,1-3-1.3,4.32,4.32,0,0,1-1.3-3.18,11.58,11.58,0,0,1,1.44-5.2,14.17,14.17,0,0,1,2.76-3.92,18.79,18.79,0,0,1,3.87-3.29,5.87,5.87,0,0,1,2.76-1,2.32,2.32,0,0,1,1.71.67,2.14,2.14,0,0,1,.67,1.6,7.62,7.62,0,0,1-1.88,4.26,18.6,18.6,0,0,1-3.21,3.37,9.25,9.25,0,0,1-2.37,1.6,19.51,19.51,0,0,1-2.43,1,2.83,2.83,0,0,0,.58,2,2.1,2.1,0,0,0,1.63.63,8.15,8.15,0,0,0,4.22-1.66,20.27,20.27,0,0,0,4.45-4c.59-.7,1-1.05,1.33-1.05S370.08,403.59,370.08,404.11Zm-5.64-5.36a.72.72,0,0,0-.66-.78,3.34,3.34,0,0,0-2.1,1.22,21.17,21.17,0,0,0-2.13,2.46,19.8,19.8,0,0,0-1.79,2.74q1.82,0,4.25-2.11C363.63,400.88,364.44,399.71,364.44,398.75Z"/><path class="cls-1" d="M388.7,400.3c0,.77-.85,1.71-2.57,2.81a8.55,8.55,0,0,1-4.44,1.66,3,3,0,0,1-2-.6,2.4,2.4,0,0,1-.72-1.95,6.36,6.36,0,0,1,0-.87,44.67,44.67,0,0,0-4.64,5.52q-2.43,3.38-2.71,4.92a3.73,3.73,0,0,1-1,1.74,2.12,2.12,0,0,1-1.46.64c-.78,0-1.16-.37-1.16-1.11q0-2.21,4.11-9.78t6.05-7.57c.48,0,.76.16.83.5s-.73,1.54-2.21,3.64a14.77,14.77,0,0,0-1.65,2.82l5.19-4.64q3.25-2.76,4.48-2.76c.73,0,1.1.24,1.1.72a2.15,2.15,0,0,1-.77,1.43,19.1,19.1,0,0,0-2.35,2.32c-.5.63-.71,1.11-.64,1.44s.34.55.89.55a4.92,4.92,0,0,0,2-.47,5.21,5.21,0,0,0,1.8-1.24,1.88,1.88,0,0,1,1.05-.55C388.45,399.39,388.7,399.67,388.7,400.3Z"/></g></g></svg>